<svg width="144" height="28" viewBox="0 0 144 28" fill="none" xmlns="http://www.w3.org/2000/svg">
<path d="M137.854 18.949L143.141 26.31H139.962L136.086 20.836L134.386 22.655V26.31H131.921V13.866H134.386V19.663L139.554 13.866H142.631L137.854 18.949Z" fill="white"/>
<path d="M125.381 13.866C126.367 13.866 127.228 14.036 127.965 14.376C128.701 14.716 129.268 15.1976 129.665 15.821C130.073 16.433 130.277 17.1526 130.277 17.98C130.277 18.796 130.073 19.5156 129.665 20.139C129.268 20.751 128.701 21.227 127.965 21.567C127.228 21.8956 126.367 22.06 125.381 22.06H123.562V26.31H121.097V13.866H125.381ZM125.109 19.969C125.879 19.969 126.497 19.8046 126.962 19.476C127.426 19.136 127.659 18.6373 127.659 17.98C127.659 17.3226 127.426 16.824 126.962 16.484C126.497 16.1326 125.879 15.957 125.109 15.957H123.562V19.969H125.109Z" fill="white"/>
<path d="M114.642 13.866L119.674 26.31H117.056L115.968 23.471H111.123L110.069 26.31H107.604L112.483 13.866H114.642ZM115.169 21.363L113.503 16.994L111.888 21.363H115.169Z" fill="white"/>
<path d="M100.135 13.373H102.498V26.31H100.424C100.367 25.6526 100.322 25.2106 100.288 24.984C99.9817 25.494 99.5793 25.8793 99.0807 26.14C98.5933 26.3893 98.0607 26.514 97.4827 26.514C96.7573 26.514 96.0943 26.3326 95.4937 25.97C94.893 25.6073 94.4113 25.0803 94.0487 24.389C93.686 23.6863 93.5047 22.859 93.5047 21.907C93.5047 20.9436 93.686 20.1163 94.0487 19.425C94.4113 18.7223 94.893 18.1896 95.4937 17.827C96.0943 17.4643 96.7573 17.283 97.4827 17.283C98.0153 17.283 98.5083 17.3906 98.9617 17.606C99.4263 17.8213 99.8173 18.15 100.135 18.592V13.373ZM98.0267 24.491C98.616 24.491 99.1147 24.2756 99.5227 23.845C99.9307 23.4143 100.135 22.7683 100.135 21.907C100.135 21.057 99.9307 20.428 99.5227 20.02C99.1147 19.6006 98.616 19.391 98.0267 19.391C97.4033 19.391 96.899 19.612 96.5137 20.054C96.1397 20.496 95.9527 21.1136 95.9527 21.907C95.9527 22.7003 96.1397 23.3293 96.5137 23.794C96.899 24.2586 97.4033 24.491 98.0267 24.491Z" fill="white"/>
<path d="M90.6218 16.382C90.2478 16.382 89.9192 16.2403 89.6358 15.957C89.3638 15.6623 89.2278 15.3223 89.2278 14.937C89.2278 14.5403 89.3638 14.2003 89.6358 13.917C89.9078 13.6336 90.2365 13.492 90.6218 13.492C91.0072 13.492 91.3415 13.6393 91.6248 13.934C91.9082 14.2173 92.0498 14.5516 92.0498 14.937C92.0498 15.3223 91.9082 15.6623 91.6248 15.957C91.3415 16.2403 91.0072 16.382 90.6218 16.382ZM91.8288 26.31H89.4658V17.504H91.8288V26.31Z" fill="white"/>
<path d="M78.7459 21.907C78.7459 20.989 78.9499 20.1786 79.3579 19.476C79.7772 18.7733 80.3325 18.235 81.0239 17.861C81.7152 17.4756 82.4632 17.283 83.2679 17.283C84.0612 17.283 84.7979 17.4756 85.4779 17.861C86.1692 18.235 86.7189 18.7733 87.1269 19.476C87.5462 20.1786 87.7559 20.989 87.7559 21.907C87.7559 22.825 87.5462 23.6353 87.1269 24.338C86.7189 25.0406 86.1692 25.579 85.4779 25.953C84.7979 26.327 84.0612 26.514 83.2679 26.514C82.4632 26.514 81.7152 26.327 81.0239 25.953C80.3325 25.579 79.7772 25.0406 79.3579 24.338C78.9499 23.6353 78.7459 22.825 78.7459 21.907ZM81.1939 21.907C81.1939 22.689 81.3865 23.3123 81.7719 23.777C82.1685 24.2303 82.6615 24.457 83.2509 24.457C83.8402 24.457 84.3275 24.2303 84.7129 23.777C85.0982 23.3123 85.2909 22.689 85.2909 21.907C85.2909 21.125 85.0982 20.5016 84.7129 20.037C84.3275 19.5723 83.8402 19.34 83.2509 19.34C82.6615 19.34 82.1685 19.5723 81.7719 20.037C81.3865 20.5016 81.1939 21.125 81.1939 21.907Z" fill="white"/>
<path d="M77.2072 17.283C77.5472 17.283 77.8646 17.334 78.1592 17.436C78.4539 17.538 78.6806 17.6683 78.8392 17.827L77.9212 19.646C77.6266 19.442 77.2922 19.34 76.9182 19.34C76.3062 19.34 75.8132 19.595 75.4392 20.105C75.0766 20.615 74.8952 21.3176 74.8952 22.213V26.31H72.5322V17.504H74.6062C74.6629 18.184 74.7139 18.6486 74.7592 18.898C75.0199 18.3653 75.3599 17.963 75.7792 17.691C76.1986 17.419 76.6746 17.283 77.2072 17.283Z" fill="white"/>
<path d="M67.9608 13.373H70.3238V26.31H68.2498C68.1932 25.6526 68.1478 25.2106 68.1138 24.984C67.8078 25.494 67.4055 25.8793 66.9068 26.14C66.4195 26.3893 65.8868 26.514 65.3088 26.514C64.5835 26.514 63.9205 26.3326 63.3198 25.97C62.7192 25.6073 62.2375 25.0803 61.8748 24.389C61.5122 23.6863 61.3308 22.859 61.3308 21.907C61.3308 20.9436 61.5122 20.1163 61.8748 19.425C62.2375 18.7223 62.7192 18.1896 63.3198 17.827C63.9205 17.4643 64.5835 17.283 65.3088 17.283C65.8415 17.283 66.3345 17.3906 66.7878 17.606C67.2525 17.8213 67.6435 18.15 67.9608 18.592V13.373ZM65.8528 24.491C66.4422 24.491 66.9408 24.2756 67.3488 23.845C67.7568 23.4143 67.9608 22.7683 67.9608 21.907C67.9608 21.057 67.7568 20.428 67.3488 20.02C66.9408 19.6006 66.4422 19.391 65.8528 19.391C65.2295 19.391 64.7252 19.612 64.3398 20.054C63.9658 20.496 63.7788 21.1136 63.7788 21.907C63.7788 22.7003 63.9658 23.3293 64.3398 23.794C64.7252 24.2586 65.2295 24.491 65.8528 24.491Z" fill="white"/>
<path d="M56.6301 17.283C57.6047 17.283 58.3754 17.606 58.9421 18.252C59.5087 18.8866 59.7921 19.816 59.7921 21.04V26.31H57.4291V21.805C57.4291 20.1956 56.8964 19.391 55.8311 19.391C55.2644 19.391 54.8054 19.612 54.4541 20.054C54.1141 20.4846 53.9441 21.0966 53.9441 21.89V26.31H51.5811V17.504H53.6551C53.7117 18.1953 53.7627 18.6656 53.8081 18.915C54.3747 17.827 55.3154 17.283 56.6301 17.283Z" fill="white"/>
<path d="M45.3309 13.866L50.3629 26.31H47.7449L46.6569 23.471H41.8119L40.7579 26.31H38.2929L43.1719 13.866H45.3309ZM45.8579 21.363L44.1919 16.994L42.5769 21.363H45.8579Z" fill="white"/>
<path d="M40.1592 1.05544V7.05394H42.2729C44.2241 7.05394 44.9404 5.78395 44.9404 4.04364C44.9404 2.28584 44.2065 1.05544 42.2729 1.05544H40.1592ZM41.2227 1.94313H42.1455C43.4243 1.94313 43.8462 2.81325 43.8462 4.06123C43.8462 5.54224 43.2617 6.16624 42.1455 6.16624H41.2227V1.94313ZM47.5105 3.67014C47.5105 2.45724 48.1258 1.83763 48.9563 1.83763C49.7913 1.83763 50.3977 2.45724 50.3977 3.67014V4.48314C50.3977 5.69603 49.7913 6.27174 48.9563 6.27174C48.1258 6.27174 47.5105 5.69603 47.5105 4.48314V3.67014ZM46.4339 4.47874C46.4339 6.17503 47.3919 7.17264 48.9519 7.17264C50.512 7.17264 51.4788 6.17503 51.4788 4.47874V3.67894C51.4788 1.97824 50.5252 0.936737 48.9607 0.936737C47.4051 0.936737 46.4339 1.97383 46.4339 3.67894V4.47874ZM55.2354 7.05394L56.3912 2.73415H56.4307L57.5865 7.05394H58.5577L60.1617 1.05544H59.0235L58.0303 5.45874H57.9864L56.8921 1.05544H55.9341L54.8355 5.45874H54.796L53.7984 1.05544H52.6602L54.2598 7.05394H55.2354ZM62.5824 7.05394V2.84395H62.6131L65.3949 7.05394H66.3045V1.05544H65.3114V5.25214H65.2762L62.5033 1.05544H61.5848V7.05394H62.5824ZM72.0255 6.13985H69.4152V1.05544H68.3517V7.05394H72.0255V6.13985ZM74.2704 3.67014C74.2704 2.45724 74.8856 1.83763 75.7162 1.83763C76.5512 1.83763 77.1576 2.45724 77.1576 3.67014V4.48314C77.1576 5.69603 76.5512 6.27174 75.7162 6.27174C74.8856 6.27174 74.2704 5.69603 74.2704 4.48314V3.67014ZM73.1937 4.47874C73.1937 6.17503 74.1518 7.17264 75.7118 7.17264C77.2719 7.17264 78.2387 6.17503 78.2387 4.47874V3.67894C78.2387 1.97824 77.2851 0.936737 75.7206 0.936737C74.1649 0.936737 73.1937 1.97383 73.1937 3.67894V4.47874ZM80.4264 7.05394L80.9362 5.43674H83.006L83.5158 7.05394H84.654L82.6105 1.05544H81.402L79.3542 7.05394H80.4264ZM81.9953 2.13203L82.7775 4.62814H81.1691L81.9557 2.13203H81.9953ZM86.1123 1.05544V7.05394H88.226C90.177 7.05394 90.894 5.78395 90.894 4.04364C90.894 2.28584 90.16 1.05544 88.226 1.05544H86.1123ZM87.1757 1.94313H88.0986C89.377 1.94313 89.799 2.81325 89.799 4.06123C89.799 5.54224 89.215 6.16624 88.0986 6.16624H87.1757V1.94313Z" fill="white"/>
<path fill-rule="evenodd" clip-rule="evenodd" d="M23.3227 0.126286C23.7233 0.372646 23.8484 0.897169 23.6021 1.29784L21.2072 5.19286C25.2773 7.64162 28 12.1017 28 17.1977H0C0 12.1016 2.72281 7.64151 6.793 5.19277L4.39815 1.29784C4.15179 0.897169 4.27688 0.372646 4.67756 0.126286C5.07823 -0.120073 5.60275 0.005023 5.84911 0.405696L8.30724 4.40354C10.0465 3.62849 11.9729 3.19769 14 3.19769C16.0271 3.19769 17.9536 3.62852 19.6929 4.40361L22.1511 0.405696C22.3975 0.005023 22.922 -0.120073 23.3227 0.126286ZM9.3985 11.4324C9.3985 12.3658 8.64184 13.1225 7.70844 13.1225C6.77505 13.1225 6.01839 12.3658 6.01839 11.4324C6.01839 10.499 6.77505 9.74235 7.70844 9.74235C8.64184 9.74235 9.3985 10.499 9.3985 11.4324ZM20.2916 13.1225C21.2249 13.1225 21.9816 12.3658 21.9816 11.4324C21.9816 10.499 21.2249 9.74235 20.2916 9.74235C19.3582 9.74235 18.6015 10.499 18.6015 11.4324C18.6015 12.3658 19.3582 13.1225 20.2916 13.1225Z" fill="#33D780"/>
<path d="M23.934 22.5069L27.8303 27.8258H25.0198L22.3371 24.1147L21.1619 25.3235V27.8258H18.9774V18.9771H21.1619V22.8454L24.726 18.9771H27.4215L23.934 22.5069Z" fill="#33D780"/>
<path d="M13.9668 18.9771C14.7503 18.9771 15.4316 19.102 16.0107 19.3519C16.5899 19.5936 17.0327 19.9402 17.3393 20.3915C17.6544 20.8428 17.812 21.3706 17.812 21.975C17.812 22.5794 17.6544 23.1073 17.3393 23.5586C17.0327 24.0099 16.5899 24.3605 16.0107 24.6103C15.4316 24.8521 14.7503 24.9729 13.9668 24.9729H12.766V27.8258H10.5815V18.9771H13.9668ZM13.7241 23.2322C14.2521 23.2322 14.6822 23.1355 15.0143 22.9421C15.3465 22.7487 15.5125 22.4263 15.5125 21.975C15.5125 21.5318 15.3422 21.2135 15.0015 21.0201C14.6694 20.8186 14.2436 20.7178 13.7241 20.7178H12.766V23.2322H13.7241Z" fill="#33D780"/>
<path d="M5.79065 18.9771L9.58475 27.8258H7.2853L6.56991 26.0367H3.03131L2.34148 27.8258H0.169769L3.86167 18.9771H5.79065ZM5.88008 24.3081L4.76868 21.5519L3.70837 24.3081H5.88008Z" fill="#33D780"/>
</svg>
