<svg width="26" height="26" viewBox="0 0 26 26" fill="none" xmlns="http://www.w3.org/2000/svg">
<path d="M24 21.3955C24 22.2817 23.2817 23 22.3955 23H3.60446C2.71834 23 2 22.2817 2 21.3955V5.60446C2 4.71834 2.71834 4 3.60446 4H22.3955C23.2817 4 24 4.71834 24 5.60446V21.3955ZM22.5189 9.44943C22.5189 9.2279 22.3393 9.04832 22.1178 9.04832H3.85138C3.6292 9.04832 3.44935 9.22891 3.45027 9.45109L3.49835 21.0892C3.49926 21.3101 3.67858 21.4887 3.89946 21.4887H22.1178C22.3393 21.4887 22.5189 21.3091 22.5189 21.0876V9.44943ZM22.1178 7.62862C22.3393 7.62862 22.5189 7.44903 22.5189 7.2275V5.92571C22.5189 5.70418 22.3393 5.5246 22.1178 5.5246H3.84972C3.62819 5.5246 3.44861 5.70418 3.44861 5.92571V7.2275C3.44861 7.44903 3.62819 7.62862 3.84972 7.62862H22.1178Z" fill="white"/>
<path d="M7.48613 18.2084L8.11788 18.8803C8.27452 19.047 8.53856 19.0491 8.69788 18.885L12.0821 15.3999C12.2333 15.2442 12.2333 14.9966 12.0821 14.841L8.6941 11.352C8.53621 11.1894 8.27507 11.1898 8.11769 11.3529L7.49179 12.0015C7.33974 12.1591 7.34216 12.4095 7.49724 12.5641L9.77484 14.8347C9.9327 14.9921 9.93196 15.248 9.77319 15.4045L7.49681 17.6479C7.34165 17.8008 7.33691 18.0496 7.48613 18.2084Z" fill="#5B8EF4"/>
<path d="M19.1434 18.1726V17.3732C19.1434 17.1516 18.9639 16.9721 18.7423 16.9721H15.2441C15.0226 16.9721 14.843 17.1516 14.843 17.3732V18.1726C14.843 18.3942 15.0226 18.5737 15.2441 18.5737H18.7423C18.9639 18.5737 19.1434 18.3942 19.1434 18.1726Z" fill="#5B8EF4"/>
</svg>
