<svg width="20" height="20" viewBox="0 0 20 20" fill="none" xmlns="http://www.w3.org/2000/svg">
<path d="M7.50002 12.9166C8.12502 13.8541 8.95835 14.5833 9.58335 14.5833C10.2084 14.5833 11.0417 13.5416 11.6667 12.9166C12.2917 12.2916 14.0625 14.9999 14.0625 15.9374V17.1874H5.93752L5.41669 15.8333C5.41669 14.8958 6.56252 13.5416 7.50002 12.9166Z" fill="#ADE2FF"/>
<path d="M5.9375 5.1626C5.9375 6.1001 6.5625 6.87509 7.5 7.50009C8.82776 8.38526 10.0352 5.51031 12.1875 7.6626C12.8125 8.2876 14.0625 6.1001 14.0625 5.1626V3.9126H5.9375V5.1626ZM10 14.6876C9.0625 14.6876 8.4375 14.0626 7.8125 13.4376C7.1875 12.8126 5.9375 15.0001 5.9375 15.9376V17.1876H14.0625V15.9376C14.0625 15.0001 13.125 14.0626 12.1875 13.4376C11.25 12.8126 10.9375 14.6876 10 14.6876ZM17.1 17.1876C17.3209 17.1876 17.5 17.3667 17.5 17.5876V18.0376C17.5 18.2585 17.3209 18.4376 17.1 18.4376H2.9C2.67909 18.4376 2.5 18.2585 2.5 18.0376V17.5876C2.5 17.3667 2.67909 17.1876 2.9 17.1876H4.6875V15.9376C4.6875 14.6876 5.625 13.4376 7.1875 12.1876L8.125 11.5626L9.375 10.6251V10.4751L8.125 9.5376L7.1875 8.9126C5.3125 7.6626 4.6875 6.4126 4.6875 5.1626V3.9126H2.9C2.67909 3.9126 2.5 3.73351 2.5 3.5126V3.0626C2.5 2.84168 2.67909 2.6626 2.9 2.6626H17.1C17.3209 2.6626 17.5 2.84168 17.5 3.0626V3.5126C17.5 3.73351 17.3209 3.9126 17.1 3.9126H15.3125V5.1626C15.3125 6.4126 14.375 7.6626 12.8125 8.9126L11.875 9.5376L10.625 10.4751V10.6376L11.875 11.8751L12.8125 12.5001C14.6875 13.7501 15.3125 15.0001 15.3125 16.2501V17.1876H17.1Z" fill="#4D83EF" stroke="#4D83EF" stroke-width="0.2"/>
</svg>
