<svg width="24" height="24" viewBox="0 0 24 24" fill="none" xmlns="http://www.w3.org/2000/svg">
<g id="Copy">
<path id="Vector" d="M8.07532 7.09422V5.01562C8.07532 4.31664 8.579 3.75 9.20032 3.75H18.9503C19.5716 3.75 20.0753 4.31664 20.0753 5.01562V15.9844C20.0753 16.6834 19.5716 17.25 18.9503 17.25H17.0818" stroke="#5B8EF4" stroke-width="2" stroke-linecap="round" stroke-linejoin="round"/>
<path id="Vector_2" d="M15.375 7.3252H5.625C5.00368 7.3252 4.5 7.89184 4.5 8.59082V19.5596C4.5 20.2586 5.00368 20.8252 5.625 20.8252H15.375C15.9963 20.8252 16.5 20.2586 16.5 19.5596V8.59082C16.5 7.89184 15.9963 7.3252 15.375 7.3252Z" stroke="#5B8EF4" stroke-width="2" stroke-linejoin="round"/>
<rect id="Rectangle 5361" x="4.5" y="7.3252" width="12" height="13.5" rx="2" stroke="#5B8EF4" stroke-width="2" stroke-linecap="round" stroke-linejoin="round"/>
<path id="Rectangle 5362" d="M8.07532 7.0908V5.75C8.07532 4.64543 8.97075 3.75 10.0753 3.75H18.0753C19.1799 3.75 20.0753 4.64543 20.0753 5.75V15.25C20.0753 16.3546 19.1799 17.25 18.0753 17.25H16.587" stroke="#5B8EF4" stroke-width="2" stroke-linecap="round" stroke-linejoin="round"/>
</g>
</svg>
