<svg width="32" height="32" viewBox="0 0 32 32" fill="none" xmlns="http://www.w3.org/2000/svg">
<g id="icon_Unable to connect">
<g id="Union">
<path d="M4.39041 4.39052C4.91111 3.86983 5.75533 3.86983 6.27603 4.39052L27.6094 25.7239C28.1301 26.2446 28.1301 27.0888 27.6094 27.6095C27.0887 28.1302 26.2444 28.1302 25.7237 27.6095L4.39041 6.27614C3.86971 5.75544 3.86971 4.91122 4.39041 4.39052ZM12.7947 6.24788C18.9319 5.29215 25.422 7.09986 30.2504 11.6757C30.7849 12.1822 30.8076 13.0261 30.301 13.5606C29.7945 14.0951 28.9506 14.1178 28.4161 13.6112C24.2116 9.62667 18.5598 8.04891 13.2051 8.88278C12.4775 8.99609 11.7958 8.4981 11.6825 7.77049C11.5691 7.04288 12.0671 6.36118 12.7947 6.24788ZM17.7013 13.3751C17.8679 12.6579 18.5845 12.2115 19.3018 12.3782C21.8585 12.9722 24.286 14.2662 26.2762 16.2565C26.7969 16.7772 26.7969 17.6214 26.2761 18.1421C25.7554 18.6628 24.9112 18.6628 24.3905 18.1421C22.7629 16.5144 20.7836 15.4601 18.6983 14.9756C17.981 14.809 17.5346 14.0924 17.7013 13.3751ZM10.2225 16.1644C10.8655 15.8056 11.0959 14.9934 10.7371 14.3504C10.3783 13.7073 9.56613 13.4769 8.92309 13.8357C7.77522 14.4762 6.69684 15.2837 5.7239 16.2566C5.20321 16.7773 5.20321 17.6215 5.7239 18.1422C6.2446 18.6629 7.08882 18.6629 7.60952 18.1422C8.40672 17.345 9.2874 16.6862 10.2225 16.1644ZM15.286 19.2499C15.4806 19.9602 15.0625 20.6936 14.3523 20.8882C13.3488 21.1631 12.4007 21.6943 11.6095 22.4855C11.0888 23.0062 10.2446 23.0062 9.7239 22.4855C9.20321 21.9648 9.20321 21.1206 9.7239 20.5999C10.8511 19.4727 12.2094 18.7103 13.6478 18.3163C14.358 18.1217 15.0914 18.5397 15.286 19.2499ZM17.6667 25.0002C17.6667 25.9206 16.9205 26.6668 16 26.6668C15.0796 26.6668 14.3334 25.9206 14.3334 25.0002C14.3334 24.0797 15.0796 23.3335 16 23.3335C16.9205 23.3335 17.6667 24.0797 17.6667 25.0002ZM5.58949 12.0501C6.22561 11.6791 6.44057 10.8627 6.06962 10.2266C5.69867 9.5905 4.88228 9.37554 4.24616 9.74649C3.11065 10.4086 2.6495 10.7492 1.6952 11.7404C1.18447 12.2709 1.20049 13.1149 1.73097 13.6257C2.26145 14.1364 3.10552 14.1204 3.61625 13.5899C4.39818 12.7777 4.66448 12.5895 5.58949 12.0501Z" fill="#B6BABF"/>
</g>
</g>
</svg>
