<svg width="26" height="26" viewBox="0 0 26 26" fill="none" xmlns="http://www.w3.org/2000/svg">
<path d="M12.5895 1C16.0461 1 19.4731 4.44177 19.4731 10.8633V10.9888C21.1469 11.8283 22.1791 13.469 22.1791 15.3189C22.1791 17.0939 21.3448 18.514 19.6762 19.5784C19.5669 19.6483 19.4433 19.6928 19.3145 19.7088C19.1858 19.7248 19.0551 19.7119 18.9319 19.671C18.8088 19.6301 18.6964 19.5622 18.6028 19.4722C18.5093 19.3823 18.437 19.2727 18.3912 19.1513L18.2796 18.8549C18.2291 18.7203 18.1459 18.6006 18.0374 18.5064C17.9289 18.4122 17.7986 18.3466 17.6583 18.3155C17.5181 18.2844 17.3723 18.2888 17.2341 18.3284C17.096 18.3679 16.9699 18.4413 16.8673 18.5419L15.7131 19.6752C15.3871 19.9944 14.9489 20.1731 14.4926 20.173H10.6891C10.2305 20.1729 9.79047 19.9922 9.46422 19.67L8.31958 18.5393C8.21928 18.4402 8.0956 18.368 7.95998 18.3294C7.82437 18.2908 7.68122 18.2871 7.54378 18.3186C7.40634 18.3501 7.27907 18.4157 7.17376 18.5094C7.06844 18.6032 6.98849 18.722 6.9413 18.8549L6.84105 19.1364C6.79725 19.2592 6.72648 19.3706 6.63394 19.4624C6.5414 19.5542 6.42945 19.6241 6.30633 19.667C6.1832 19.7098 6.05204 19.7245 5.9225 19.7099C5.79295 19.6953 5.66833 19.6519 5.55779 19.5828C3.8526 18.5175 3 17.0965 3 15.3189C3 13.4786 4.02347 11.8004 5.62405 10.9879V10.8615C5.62405 3.66415 9.13295 1 12.5895 1ZM12.5895 2.74355C9.53135 2.74355 7.3676 5.33099 7.3676 10.8615V12.0576L6.413 12.5423C5.39738 13.0575 4.74355 14.1351 4.74355 15.3189C4.74355 16.1898 5.04344 16.9021 5.71384 17.5254C5.93959 17.2425 6.22231 17.0102 6.54365 16.8437C6.865 16.6771 7.21777 16.58 7.57908 16.5586C7.94039 16.5372 8.30215 16.5921 8.64089 16.7196C8.97963 16.8471 9.28776 17.0444 9.5453 17.2987L10.6899 18.4294H14.4926L15.6469 17.297C15.9063 17.0424 16.2161 16.8449 16.5563 16.7171C16.8966 16.5894 17.2598 16.5342 17.6227 16.5551C17.9856 16.5761 18.34 16.6727 18.6633 16.8387C18.9867 17.0047 19.2717 17.2366 19.5001 17.5193C20.1452 16.9003 20.4355 16.189 20.4355 15.3189C20.4355 14.1368 19.7834 13.095 18.692 12.5475L17.7295 12.0655V10.8633C17.7295 5.8122 15.3513 2.74355 12.5895 2.74355Z" fill="white"/>
<path d="M13.2058 21.7683C13.0423 21.6048 12.8206 21.5129 12.5893 21.5129C12.3581 21.5129 12.1364 21.6048 11.9729 21.7683C11.8094 21.9318 11.7176 22.1535 11.7176 22.3847V24.1283C11.7176 24.3595 11.8094 24.5812 11.9729 24.7447C12.1364 24.9082 12.3581 25 12.5893 25C12.8206 25 13.0423 24.9082 13.2058 24.7447C13.3693 24.5812 13.4611 24.3595 13.4611 24.1283V22.3847C13.4611 22.1535 13.3693 21.9318 13.2058 21.7683Z" fill="white"/>
<path d="M16.6929 21.7683C16.5294 21.6048 16.3077 21.5129 16.0765 21.5129C15.8452 21.5129 15.6235 21.6048 15.46 21.7683C15.2965 21.9318 15.2047 22.1535 15.2047 22.3847V24.1283C15.2047 24.3595 15.2965 24.5812 15.46 24.7447C15.6235 24.9082 15.8452 25 16.0765 25C16.3077 25 16.5294 24.9082 16.6929 24.7447C16.8564 24.5812 16.9482 24.3595 16.9482 24.1283V22.3847C16.9482 22.1535 16.8564 21.9318 16.6929 21.7683Z" fill="white"/>
<path d="M9.71868 21.7683C9.55519 21.6048 9.33345 21.5129 9.10224 21.5129C8.87104 21.5129 8.6493 21.6048 8.48581 21.7683C8.32232 21.9318 8.23047 22.1535 8.23047 22.3847V24.1283C8.23047 24.3595 8.32232 24.5812 8.48581 24.7447C8.6493 24.9082 8.87104 25 9.10224 25C9.33345 25 9.55519 24.9082 9.71868 24.7447C9.88217 24.5812 9.97402 24.3595 9.97402 24.1283V22.3847C9.97402 22.1535 9.88217 21.9318 9.71868 21.7683Z" fill="white"/>
<path fill-rule="evenodd" clip-rule="evenodd" d="M12.5896 5.35889C14.5128 5.35889 16.0767 6.92285 16.0767 8.84599C16.0767 10.7691 14.5128 12.3331 12.5896 12.3331C10.6665 12.3331 9.10254 10.7691 9.10254 8.84599C9.10254 6.92285 10.6665 5.35889 12.5896 5.35889ZM12.5896 7.10242C11.6289 7.10242 10.8461 7.88527 10.8461 8.84597C10.8461 9.80667 11.6289 10.5895 12.5896 10.5895C13.5503 10.5895 14.3332 9.80667 14.3332 8.84597C14.3332 7.88527 13.5503 7.10242 12.5896 7.10242Z" fill="#5B8EF4"/>
</svg>
