<svg width="33" height="32" viewBox="0 0 33 32" fill="none" xmlns="http://www.w3.org/2000/svg">
<g id="appstore_android">
<path id="Vector" d="M16.0973 15.2983L3.02051 29.0446C3.02123 29.0474 3.02194 29.0503 3.02266 29.0528C3.42377 30.5453 4.7999 31.6444 6.43401 31.6444C7.08664 31.6444 7.69993 31.4695 8.2259 31.1628L8.26742 31.1381L22.9869 22.7264L16.0973 15.2983Z" fill="#EA4335"/>
<path id="Vector_2" d="M29.3269 12.9575L29.3144 12.9494L22.9598 9.30042L15.8003 15.6103L22.9848 22.7246L29.3062 19.1125C30.4143 18.5197 31.1668 17.3629 31.1668 16.0291C31.1668 14.7033 30.4246 13.5526 29.3269 12.9575Z" fill="#FBBC04"/>
<path id="Vector_3" d="M3.01977 2.95471C2.94141 3.24202 2.8999 3.5433 2.8999 3.85496V28.1451C2.91279 28.4937 2.94105 28.7588 3.02048 29.0447L16.547 15.6504L3.01977 2.95471Z" fill="#4285F4"/>
<path id="Vector_4" d="M16.1939 16L22.9619 9.29829L8.25916 0.855807C7.72496 0.538788 7.10129 0.355591 6.43399 0.355591C4.79988 0.355591 3.4216 1.45692 3.0205 2.95149C3.02013 2.95256 3.02013 2.95364 3.01978 2.95507L16.1939 16Z" fill="#34A853"/>
</g>
</svg>
