<svg width="33" height="32" viewBox="0 0 33 32" fill="none" xmlns="http://www.w3.org/2000/svg">
<g id="Clip path group">
<mask id="mask0_16343_2" style="mask-type:luminance" maskUnits="userSpaceOnUse" x="0" y="0" width="33" height="32">
<g id="clip0_1_50">
<path id="Vector" d="M32.5 0H0.5V32H32.5V0Z" fill="white"/>
</g>
</mask>
<g mask="url(#mask0_16343_2)">
<g id="Group">
<path id="Vector_2" d="M26.036 0H6.964C3.392 0 0.5 2.892 0.5 6.464V25.54C0.5 29.108 3.392 32 6.964 32H26.04C29.608 32 32.504 29.108 32.504 25.536V6.464C32.5 2.892 29.608 0 26.036 0Z" fill="url(#paint0_linear_16343_2)"/>
<path id="Vector_3" d="M16.364 7.35196L17.012 6.23196C17.412 5.53196 18.304 5.29596 19.004 5.69596C19.704 6.09596 19.94 6.98796 19.54 7.68796L13.296 18.496H17.812C19.276 18.496 20.096 20.216 19.46 21.408H6.21998C5.41198 21.408 4.76398 20.76 4.76398 19.952C4.76398 19.144 5.41198 18.496 6.21998 18.496H9.93198L14.684 10.26L13.2 7.68396C12.8 6.98396 13.036 6.09996 13.736 5.69196C14.436 5.29196 15.32 5.52796 15.728 6.22796L16.364 7.35196ZM10.748 22.908L9.34798 25.336C8.94798 26.036 8.05598 26.272 7.35598 25.872C6.65598 25.472 6.41998 24.58 6.81998 23.88L7.85998 22.08C9.03598 21.716 9.99198 21.996 10.748 22.908ZM22.804 18.504H26.592C27.4 18.504 28.048 19.152 28.048 19.96C28.048 20.768 27.4 21.416 26.592 21.416H24.488L25.908 23.88C26.308 24.58 26.072 25.464 25.372 25.872C24.672 26.272 23.788 26.036 23.38 25.336C20.988 21.188 19.192 18.084 18 16.016C16.78 13.912 17.652 11.8 18.512 11.084C19.468 12.724 20.896 15.2 22.804 18.504Z" fill="white"/>
</g>
</g>
</g>
<defs>
<linearGradient id="paint0_linear_16343_2" x1="16.502" y1="0" x2="16.502" y2="32" gradientUnits="userSpaceOnUse">
<stop stop-color="#18BFFB"/>
<stop offset="1" stop-color="#2072F3"/>
</linearGradient>
</defs>
</svg>
