<svg width="180" height="54" viewBox="0 0 180 54" fill="none" xmlns="http://www.w3.org/2000/svg">
<path fill-rule="evenodd" clip-rule="evenodd" d="M17.0376 9.70157L17.0249 13.8581C17.0169 16.4929 16.7135 19.2469 15.0309 21.2745C13.7246 22.8487 12.0157 24.0738 10.0544 24.7996L7.3869 25.7868L10.0544 26.774C13.2781 27.967 15.8198 30.5087 17.0128 33.7324L18 36.3999L18.9872 33.7324C20.1802 30.5087 22.7219 27.967 25.9456 26.774L28.6131 25.7868L25.9456 24.7996C23.9842 24.0738 22.2754 22.8487 20.9691 21.2745C19.2865 19.2469 18.9831 16.4929 18.9751 13.8581L18.9624 9.70155L20.0184 10.5873C24.4535 14.3072 30.2827 15.9231 36 15.0176L35.5768 19.0679C34.4235 30.1075 27.8271 39.8395 18 45C8.19744 40.0498 1.58911 30.45 0.464261 19.5262L0 15.0176C5.71729 15.9231 11.5465 14.3072 15.9816 10.5873L17.0376 9.70157Z" fill="white"/>
<path d="M58.457 18.748V21.46H51.473V25.756H56.825V28.42H51.473V35.5H48.113V18.748H58.457ZM59.9756 28.804C59.9756 27.46 60.2396 26.268 60.7676 25.228C61.3116 24.188 62.0396 23.388 62.9516 22.828C63.8796 22.268 64.9116 21.988 66.0476 21.988C67.0396 21.988 67.9036 22.188 68.6396 22.588C69.3916 22.988 69.9916 23.492 70.4396 24.1V22.204H73.8236V35.5H70.4396V33.556C70.0076 34.18 69.4076 34.7 68.6396 35.116C67.8876 35.516 67.0156 35.716 66.0236 35.716C64.9036 35.716 63.8796 35.428 62.9516 34.852C62.0396 34.276 61.3116 33.468 60.7676 32.428C60.2396 31.372 59.9756 30.164 59.9756 28.804ZM70.4396 28.852C70.4396 28.036 70.2796 27.34 69.9596 26.764C69.6396 26.172 69.2076 25.724 68.6636 25.42C68.1196 25.1 67.5356 24.94 66.9116 24.94C66.2876 24.94 65.7116 25.092 65.1836 25.396C64.6556 25.7 64.2236 26.148 63.8876 26.74C63.5676 27.316 63.4076 28.004 63.4076 28.804C63.4076 29.604 63.5676 30.308 63.8876 30.916C64.2236 31.508 64.6556 31.964 65.1836 32.284C65.7276 32.604 66.3036 32.764 66.9116 32.764C67.5356 32.764 68.1196 32.612 68.6636 32.308C69.2076 31.988 69.6396 31.54 69.9596 30.964C70.2796 30.372 70.4396 29.668 70.4396 28.852ZM78.8092 20.62C78.2172 20.62 77.7212 20.436 77.3212 20.068C76.9372 19.684 76.7452 19.212 76.7452 18.652C76.7452 18.092 76.9372 17.628 77.3212 17.26C77.7212 16.876 78.2172 16.684 78.8092 16.684C79.4012 16.684 79.8892 16.876 80.2732 17.26C80.6732 17.628 80.8732 18.092 80.8732 18.652C80.8732 19.212 80.6732 19.684 80.2732 20.068C79.8892 20.436 79.4012 20.62 78.8092 20.62ZM80.4652 22.204V35.5H77.1052V22.204H80.4652ZM87.1449 24.268C87.5769 23.564 88.1369 23.012 88.8249 22.612C89.5289 22.212 90.3289 22.012 91.2249 22.012V25.54H90.3369C89.2809 25.54 88.4809 25.788 87.9369 26.284C87.4089 26.78 87.1449 27.644 87.1449 28.876V35.5H83.7849V22.204H87.1449V24.268ZM106.208 22.204L97.976 41.788H94.4L97.28 35.164L91.952 22.204H95.72L99.152 31.492L102.632 22.204H106.208ZM123.067 18.748L116.923 35.5H112.843L106.699 18.748H110.299L114.907 32.068L119.491 18.748H123.067ZM124.218 28.804C124.218 27.46 124.482 26.268 125.01 25.228C125.554 24.188 126.282 23.388 127.194 22.828C128.122 22.268 129.154 21.988 130.29 21.988C131.282 21.988 132.146 22.188 132.882 22.588C133.634 22.988 134.234 23.492 134.682 24.1V22.204H138.066V35.5H134.682V33.556C134.25 34.18 133.65 34.7 132.882 35.116C132.13 35.516 131.258 35.716 130.266 35.716C129.146 35.716 128.122 35.428 127.194 34.852C126.282 34.276 125.554 33.468 125.01 32.428C124.482 31.372 124.218 30.164 124.218 28.804ZM134.682 28.852C134.682 28.036 134.522 27.34 134.202 26.764C133.882 26.172 133.45 25.724 132.906 25.42C132.362 25.1 131.778 24.94 131.154 24.94C130.53 24.94 129.954 25.092 129.426 25.396C128.898 25.7 128.466 26.148 128.13 26.74C127.81 27.316 127.65 28.004 127.65 28.804C127.65 29.604 127.81 30.308 128.13 30.916C128.466 31.508 128.898 31.964 129.426 32.284C129.97 32.604 130.546 32.764 131.154 32.764C131.778 32.764 132.362 32.612 132.906 32.308C133.45 31.988 133.882 31.54 134.202 30.964C134.522 30.372 134.682 29.668 134.682 28.852ZM153.899 22.204V35.5H150.515V33.82C150.083 34.396 149.515 34.852 148.811 35.188C148.123 35.508 147.371 35.668 146.555 35.668C145.515 35.668 144.595 35.452 143.795 35.02C142.995 34.572 142.363 33.924 141.899 33.076C141.451 32.212 141.227 31.188 141.227 30.004V22.204H144.587V29.524C144.587 30.58 144.851 31.396 145.379 31.972C145.907 32.532 146.627 32.812 147.539 32.812C148.467 32.812 149.195 32.532 149.723 31.972C150.251 31.396 150.515 30.58 150.515 29.524V22.204H153.899ZM160.575 17.74V35.5H157.215V17.74H160.575ZM167.806 24.964V31.396C167.806 31.844 167.91 32.172 168.118 32.38C168.342 32.572 168.71 32.668 169.222 32.668H170.782V35.5H168.67C165.838 35.5 164.422 34.124 164.422 31.372V24.964H162.838V22.204H164.422V18.916H167.806V22.204H170.782V24.964H167.806Z" fill="white"/>
</svg>
