<svg width="64" height="64" viewBox="0 0 64 64" fill="none" xmlns="http://www.w3.org/2000/svg">
<path d="M42.6667 29.3334C47.0934 29.3334 50.6401 25.76 50.6401 21.3334C50.6401 16.9067 47.0934 13.3334 42.6667 13.3334C38.2401 13.3334 34.6667 16.9067 34.6667 21.3334C34.6667 25.76 38.2401 29.3334 42.6667 29.3334ZM21.3334 29.3334C25.7601 29.3334 29.3067 25.76 29.3067 21.3334C29.3067 16.9067 25.7601 13.3334 21.3334 13.3334C16.9067 13.3334 13.3334 16.9067 13.3334 21.3334C13.3334 25.76 16.9067 29.3334 21.3334 29.3334ZM21.3334 34.6667C15.1201 34.6667 2.66675 37.7867 2.66675 44V50.6667H40.0001V44C40.0001 37.7867 27.5467 34.6667 21.3334 34.6667ZM42.6667 34.6667C41.8934 34.6667 41.0134 34.72 40.0801 34.8C43.1734 37.04 45.3334 40.0534 45.3334 44V50.6667H61.3334V44C61.3334 37.7867 48.8801 34.6667 42.6667 34.6667Z" fill="#5B8EF4"/>
</svg>
