<svg width="168" height="28" viewBox="0 0 168 28" fill="none" xmlns="http://www.w3.org/2000/svg">
<g id="AeFinder 1" clip-path="url(#clip0_16067_1022)">
<g id="&#229;&#155;&#190;&#229;&#177;&#130; 1">
<g id="Group">
<path id="Vector" d="M36.6991 19.8985C36.9562 21.2482 39.2538 21.9777 41.6254 21.9777C43.4121 21.9777 45.1281 21.833 46.9887 21.2482L47.866 25.7728C45.4205 26.7593 42.9751 27.0132 40.6774 27.0132C33.9612 27.0132 30.1661 23.4012 30.1661 17.7069C30.1661 14.1657 32.6115 8.18213 40.0186 8.18213C46.4424 8.18213 48.8879 12.9638 48.8879 17.5238C48.8879 18.4717 48.7433 19.4936 48.634 19.8953H36.6991V19.8985ZM42.5027 15.2647C42.5027 14.4613 41.9564 12.5653 39.6941 12.5653C37.5764 12.5653 36.7377 14.2428 36.5931 15.2647H42.5059H42.5027Z" fill="#B2B2B2"/>
<path id="Vector_2" d="M72.7611 27.0164V9.05939H79.6573V27.0164H72.7611ZM79.6573 4.43196C79.6573 6.33757 78.1148 7.88004 76.2092 7.88004C74.3036 7.88004 72.7611 6.33757 72.7611 4.43196C72.7611 2.52636 74.3036 0.983887 76.2092 0.983887C78.1148 0.983887 79.6573 2.52636 79.6573 4.43196Z" fill="#B2B2B2"/>
<path id="Vector_3" d="M84.0374 15.2997C84.0374 12.745 83.9635 10.6659 83.8928 9.0591H89.8409L90.1334 11.4307H90.278C90.8243 10.6626 92.5756 8.62207 95.9723 8.62207C100.278 8.62207 102.942 11.3953 102.942 16.6494V27.0129H96.0462V17.6713C96.0462 15.3351 95.2075 14.0946 93.4915 14.0946C91.994 14.0946 91.3738 15.1519 91.0813 15.846C90.9367 16.1738 90.9367 16.6494 90.9367 17.0511V27.0129H84.0406V15.2965L84.0374 15.2997Z" fill="#B2B2B2"/>
<path id="Vector_4" d="M136.812 19.8985C137.069 21.2482 139.367 21.9777 141.739 21.9777C143.525 21.9777 145.241 21.833 147.102 21.2482L147.979 25.7728C145.534 26.7593 143.088 27.0132 140.791 27.0132C134.074 27.0132 130.279 23.4012 130.279 17.7069C130.279 14.1657 132.725 8.18213 140.132 8.18213C146.556 8.18213 149.001 12.9638 149.001 17.5238C149.001 18.4717 148.856 19.4936 148.747 19.8953H136.812V19.8985ZM142.616 15.2647C142.616 14.4613 142.07 12.5653 139.807 12.5653C137.69 12.5653 136.851 14.2428 136.706 15.2647H142.619H142.616Z" fill="#B2B2B2"/>
<path id="Vector_5" d="M152.141 15.2258C152.141 12.0509 152.106 10.4441 151.996 9.0591H157.871L158.089 12.5265H158.234C159.22 9.57005 161.775 8.62207 163.453 8.62207C164.037 8.62207 164.291 8.62207 164.802 8.73133V15.1198C164.291 15.0105 163.745 14.9012 162.977 14.9012C160.605 14.9012 159.326 15.8878 159.073 17.2374C159.037 17.5299 159.037 17.8223 159.037 18.1147V27.0193H152.141V15.2322V15.2258Z" fill="#B2B2B2"/>
<path id="Vector_6" d="M20.3843 2.41748H10.9688L3.19531 27.0168H10.4578L15.3487 7.05455L21.0045 27.0168H28.6687L20.3843 2.41748Z" fill="#B2B2B2"/>
<path id="Vector_7" d="M52.1755 12.231L52.1691 27.0098L59.0652 27.013L59.0717 17.7807L68.8535 17.7871V12.2406L59.0749 12.2342L52.1755 12.231Z" fill="#B2B2B2"/>
<path id="Vector_8" d="M69.4799 2.42321L52.1817 2.41357L52.1785 7.87973H69.4767L69.4799 2.42321Z" fill="#B2B2B2"/>
<path id="Vector_9" d="M126.921 0.983887H120.022V9.93668H119.948C119 8.66092 117.1 8.18532 115.021 8.18532C110.423 8.18532 106.261 11.7619 106.3 17.7455C106.3 23.7322 110.388 27.0164 114.584 27.0164C116.811 27.0164 119.218 26.2484 120.571 23.9861H120.645L120.902 26.5761H127.069C126.995 25.6282 126.924 23.2566 126.924 20.9204V0.983887H126.921ZM120.022 17.7808C120.022 18.1825 120.022 18.6195 119.948 19.0212C119.729 20.4095 118.524 21.576 116.917 21.576C114.838 21.576 113.341 20.0785 113.341 17.4884C113.341 15.2261 114.472 13.2916 116.953 13.2916C118.521 13.2916 119.726 14.4227 119.983 15.8463C120.018 16.1002 120.018 16.3926 120.018 16.6497V17.7808H120.022Z" fill="#B2B2B2"/>
</g>
</g>
</g>
<defs>
<clipPath id="clip0_16067_1022">
<rect width="167.616" height="27" fill="white" transform="translate(0.192139 0.5)"/>
</clipPath>
</defs>
</svg>
