<svg width="252" height="100" viewBox="0 0 252 100" fill="none" xmlns="http://www.w3.org/2000/svg">
<circle cx="52.3466" cy="50.0002" r="20.3468" fill="url(#paint0_linear_16123_43193)"/>
<mask id="mask0_16123_43193" style="mask-type:alpha" maskUnits="userSpaceOnUse" x="31" y="29" width="42" height="42">
<circle cx="52.3466" cy="50.0002" r="20.3468" fill="url(#paint1_linear_16123_43193)"/>
</mask>
<g mask="url(#mask0_16123_43193)">
<circle cx="48.7992" cy="41.3459" r="20.3468" fill="url(#paint2_linear_16123_43193)"/>
</g>
<path d="M59.9721 59.4745C60.6303 60.8583 62.2857 61.4465 63.6695 60.7883C65.0533 60.1301 65.6414 58.4747 64.9832 57.0909L59.9721 59.4745ZM64.9832 57.0909C64.3357 55.7295 63.6884 54.0641 63.5857 49.9311L58.0383 50.0689C58.159 54.928 58.9687 57.365 59.9721 59.4745L64.9832 57.0909Z" fill="white"/>
<path fill-rule="evenodd" clip-rule="evenodd" d="M53.9709 60.0899C53.9709 60.4579 54.2921 60.7453 54.6544 60.6807C59.732 59.7755 63.5868 55.338 63.5868 50.0002C63.5868 44.6624 59.732 40.225 54.6544 39.3197C54.2921 39.2552 53.9709 39.5426 53.9709 39.9106V44.3575C53.9709 44.6429 54.1684 44.8874 54.4387 44.979C56.5314 45.6878 58.0376 47.6681 58.0376 50.0002C58.0376 52.3323 56.5314 54.3127 54.4387 55.0215C54.1684 55.113 53.9709 55.3575 53.9709 55.643V60.0899ZM51.5046 44.3573C51.5046 44.6427 51.3071 44.8873 51.0367 44.9788C48.9438 45.6875 47.4373 47.6679 47.4373 50.0002C47.4373 52.3325 48.9438 54.313 51.0367 55.0216C51.3071 55.1132 51.5046 55.3577 51.5046 55.6432V60.09C51.5046 60.458 51.1835 60.7454 50.8212 60.6808C45.7433 59.7759 41.8882 55.3383 41.8882 50.0002C41.8882 44.6622 45.7433 40.2246 50.8212 39.3196C51.1835 39.2551 51.5046 39.5425 51.5046 39.9105L51.5046 44.3573Z" fill="white"/>
<path d="M212.196 41.9058C213.692 41.9058 215.027 42.2165 216.201 42.838C217.398 43.4595 218.331 44.3803 218.998 45.6003C219.666 46.8202 220 48.2934 220 50.0198V61.2414H216.098V50.6068C216.098 48.9034 215.672 47.6029 214.82 46.7051C213.969 45.7844 212.806 45.324 211.333 45.324C209.86 45.324 208.686 45.7844 207.811 46.7051C206.959 47.6029 206.534 48.9034 206.534 50.6068V61.2414H202.597V42.2165H206.534V44.3918C207.178 43.6091 207.995 42.9991 208.985 42.5618C209.998 42.1244 211.068 41.9058 212.196 41.9058Z" fill="white"/>
<path d="M178.92 51.6426C178.92 49.7321 179.312 48.0402 180.094 46.567C180.9 45.0938 181.982 43.9544 183.34 43.1488C184.721 42.3201 186.24 41.9058 187.898 41.9058C189.394 41.9058 190.694 42.205 191.799 42.8035C192.927 43.379 193.825 44.104 194.493 44.9788V42.2165H198.463V61.2414H194.493V58.4101C193.825 59.3079 192.916 60.056 191.765 60.6544C190.614 61.2529 189.302 61.5522 187.829 61.5522C186.194 61.5522 184.698 61.1378 183.34 60.3092C181.982 59.4575 180.9 58.2835 180.094 56.7873C179.312 55.2681 178.92 53.5532 178.92 51.6426ZM194.493 51.7117C194.493 50.3996 194.216 49.2602 193.664 48.2934C193.134 47.3267 192.432 46.5901 191.558 46.0836C190.683 45.5772 189.739 45.324 188.726 45.324C187.714 45.324 186.77 45.5772 185.895 46.0836C185.02 46.567 184.307 47.2921 183.754 48.2589C183.225 49.2027 182.96 50.3306 182.96 51.6426C182.96 52.9547 183.225 54.1056 183.754 55.0954C184.307 56.0852 185.02 56.8449 185.895 57.3743C186.793 57.8807 187.737 58.1339 188.726 58.1339C189.739 58.1339 190.683 57.8807 191.558 57.3743C192.432 56.8679 193.134 56.1313 193.664 55.1645C194.216 54.1747 194.493 53.0238 194.493 51.7117Z" fill="white"/>
<path d="M159.253 51.7117C159.253 49.7551 159.644 48.0402 160.427 46.567C161.233 45.0708 162.338 43.9199 163.742 43.1142C165.146 42.3086 166.757 41.9058 168.576 41.9058C170.878 41.9058 172.777 42.4582 174.273 43.5631C175.792 44.645 176.816 46.1987 177.346 48.2244H173.099C172.754 47.2806 172.201 46.544 171.442 46.0146C170.682 45.4852 169.727 45.2204 168.576 45.2204C166.964 45.2204 165.675 45.7959 164.709 46.9468C163.765 48.0748 163.293 49.663 163.293 51.7117C163.293 53.7604 163.765 55.3602 164.709 56.5111C165.675 57.662 166.964 58.2375 168.576 58.2375C170.855 58.2375 172.362 57.2362 173.099 55.2336H177.346C176.793 57.1671 175.758 58.7094 174.238 59.8603C172.719 60.9882 170.832 61.5522 168.576 61.5522C166.757 61.5522 165.146 61.1493 163.742 60.3437C162.338 59.515 161.233 58.3641 160.427 56.8909C159.644 55.3947 159.253 53.6683 159.253 51.7117Z" fill="white"/>
<path d="M150.063 61.5522C148.566 61.5522 147.22 61.2875 146.023 60.758C144.849 60.2056 143.917 59.469 143.226 58.5482C142.535 57.6045 142.167 56.5571 142.121 55.4062H146.195C146.264 56.2118 146.644 56.8909 147.335 57.4433C148.048 57.9728 148.935 58.2375 149.993 58.2375C151.098 58.2375 151.95 58.0303 152.549 57.616C153.17 57.1786 153.481 56.6262 153.481 55.9586C153.481 55.2451 153.136 54.7156 152.445 54.3704C151.777 54.0251 150.707 53.6453 149.234 53.2309C147.807 52.8396 146.644 52.4598 145.747 52.0915C144.849 51.7232 144.066 51.1593 143.399 50.3996C142.754 49.64 142.432 48.6387 142.432 47.3957C142.432 46.3829 142.731 45.4621 143.33 44.6335C143.928 43.7818 144.78 43.1142 145.885 42.6308C147.013 42.1475 148.302 41.9058 149.752 41.9058C151.916 41.9058 153.653 42.4582 154.965 43.5631C156.301 44.645 157.014 46.1297 157.106 48.0172H153.17C153.101 47.1655 152.756 46.4865 152.134 45.9801C151.513 45.4736 150.673 45.2204 149.614 45.2204C148.578 45.2204 147.784 45.4161 147.231 45.8074C146.679 46.1987 146.403 46.7167 146.403 47.3612C146.403 47.8676 146.587 48.2934 146.955 48.6387C147.323 48.984 147.772 49.2602 148.302 49.4674C148.831 49.6515 149.614 49.8932 150.65 50.1925C152.031 50.5608 153.159 50.9406 154.033 51.3319C154.931 51.7002 155.702 52.2526 156.347 52.9892C156.991 53.7258 157.325 54.7041 157.348 55.9241C157.348 57.006 157.049 57.9728 156.45 58.8245C155.852 59.6762 155 60.3437 153.895 60.8271C152.813 61.3105 151.536 61.5522 150.063 61.5522Z" fill="white"/>
<path d="M140.704 45.4277H137.182V61.2415H133.212V45.4277H130.967V42.2166H133.212V40.87C133.212 38.6833 133.787 37.095 134.938 36.1052C136.112 35.0923 137.942 34.5859 140.428 34.5859V37.8661C139.231 37.8661 138.391 38.0963 137.907 38.5567C137.424 38.994 137.182 39.7651 137.182 40.87V42.2166H140.704V45.4277Z" fill="white"/>
<path d="M128.596 35.6909V61.2416H124.66V35.6909H128.596Z" fill="white"/>
<path d="M121.822 51.2628C121.822 51.9764 121.776 52.6209 121.684 53.1964H107.148C107.263 54.7156 107.827 55.9356 108.84 56.8564C109.853 57.7771 111.096 58.2375 112.569 58.2375C114.687 58.2375 116.183 57.3513 117.058 55.5788H121.304C120.729 57.3282 119.682 58.7669 118.162 59.8948C116.666 60.9997 114.802 61.5522 112.569 61.5522C110.75 61.5522 109.116 61.1493 107.666 60.3437C106.239 59.515 105.111 58.3641 104.282 56.8909C103.477 55.3947 103.074 53.6683 103.074 51.7117C103.074 49.7551 103.465 48.0402 104.248 46.567C105.053 45.0708 106.17 43.9199 107.597 43.1142C109.047 42.3086 110.704 41.9058 112.569 41.9058C114.364 41.9058 115.964 42.2971 117.368 43.0797C118.772 43.8623 119.866 44.9672 120.648 46.3944C121.431 47.7985 121.822 49.4213 121.822 51.2628ZM117.714 50.0198C117.691 48.5697 117.173 47.4072 116.16 46.5325C115.147 45.6578 113.892 45.2204 112.396 45.2204C111.038 45.2204 109.876 45.6578 108.909 46.5325C107.942 47.3842 107.367 48.5466 107.183 50.0198H117.714Z" fill="white"/>
<path d="M80.7087 51.6426C80.7087 49.7321 81.1001 48.0402 81.8827 46.567C82.6883 45.0938 83.7702 43.9544 85.1283 43.1488C86.5094 42.3201 88.0287 41.9058 89.686 41.9058C91.1822 41.9058 92.4828 42.205 93.5877 42.8035C94.7156 43.379 95.6133 44.104 96.2809 44.9788V42.2165H100.252V61.2414H96.2809V58.4101C95.6133 59.3079 94.7041 60.056 93.5531 60.6544C92.4022 61.2529 91.0901 61.5522 89.617 61.5522C87.9826 61.5522 86.4864 61.1378 85.1283 60.3092C83.7702 59.4575 82.6883 58.2835 81.8827 56.7873C81.1001 55.2681 80.7087 53.5532 80.7087 51.6426ZM96.2809 51.7117C96.2809 50.3996 96.0046 49.2602 95.4522 48.2934C94.9227 47.3267 94.2207 46.5901 93.346 46.0836C92.4713 45.5772 91.5275 45.324 90.5147 45.324C89.5019 45.324 88.5581 45.5772 87.6834 46.0836C86.8087 46.567 86.0951 47.2921 85.5427 48.2589C85.0132 49.2027 84.7485 50.3306 84.7485 51.6426C84.7485 52.9547 85.0132 54.1056 85.5427 55.0954C86.0951 56.0852 86.8087 56.8449 87.6834 57.3743C88.5811 57.8807 89.5249 58.1339 90.5147 58.1339C91.5275 58.1339 92.4713 57.8807 93.346 57.3743C94.2207 56.8679 94.9227 56.1313 95.4522 55.1645C96.0046 54.1747 96.2809 53.0238 96.2809 51.7117Z" fill="white"/>
<defs>
<linearGradient id="paint0_linear_16123_43193" x1="61.2591" y1="40.2637" x2="43.2817" y2="68.9594" gradientUnits="userSpaceOnUse">
<stop stop-color="#0445A6"/>
<stop offset="0.84788" stop-color="#2773E3"/>
</linearGradient>
<linearGradient id="paint1_linear_16123_43193" x1="69.6352" y1="44.7197" x2="40.4448" y2="65.7605" gradientUnits="userSpaceOnUse">
<stop stop-color="#266CD3"/>
<stop offset="1" stop-color="#09CBF6"/>
</linearGradient>
<linearGradient id="paint2_linear_16123_43193" x1="57.7118" y1="31.6094" x2="39.7344" y2="60.3051" gradientUnits="userSpaceOnUse">
<stop offset="0.152119" stop-color="#2773E3"/>
<stop offset="1" stop-color="#0445A6"/>
</linearGradient>
</defs>
</svg>
