<svg width="188" height="42" viewBox="0 0 188 42" fill="none" xmlns="http://www.w3.org/2000/svg">
<path fill-rule="evenodd" clip-rule="evenodd" d="M20.3466 41.347C31.5838 41.347 40.6934 32.2374 40.6934 21.0002C40.6934 9.76291 31.5838 0.65332 20.3466 0.65332C9.10934 0.65332 -0.000244141 9.76291 -0.000244141 21.0002C-0.000244141 32.2374 9.10934 41.347 20.3466 41.347ZM21.9708 31.0899C21.9708 31.4579 22.292 31.7453 22.6542 31.6807C24.4748 31.3562 26.1381 30.5775 27.5229 29.4661C27.6668 29.8152 27.8172 30.1488 27.9721 30.4745C28.6303 31.8583 30.2857 32.4465 31.6695 31.7883C33.0533 31.1301 33.6414 29.4747 32.9832 28.0909C32.3375 26.7333 31.692 25.0734 31.5866 20.9656C31.5699 15.6432 27.7209 11.223 22.6542 10.3198C22.292 10.2552 21.9708 10.5426 21.9708 10.9106V15.3575C21.9708 15.6429 22.1683 15.8875 22.4386 15.979C24.5313 16.6878 26.0375 18.6681 26.0375 21.0002C26.0375 23.3324 24.5313 25.3127 22.4386 26.0215C22.1683 26.113 21.9708 26.3576 21.9708 26.643V31.0899ZM19.5045 15.3573C19.5045 15.6428 19.307 15.8873 19.0366 15.9788C16.9437 16.6875 15.4372 18.6679 15.4372 21.0002C15.4372 23.3326 16.9437 25.313 19.0366 26.0217C19.307 26.1132 19.5045 26.3577 19.5045 26.6432V31.09C19.5045 31.458 19.1834 31.7454 18.8211 31.6808C13.7432 30.7759 9.88806 26.3383 9.88806 21.0002C9.88806 15.6622 13.7432 11.2246 18.8211 10.3196C19.1834 10.2551 19.5045 10.5425 19.5045 10.9105V15.3573Z" fill="url(#paint0_linear_16067_1036)"/>
<path fill-rule="evenodd" clip-rule="evenodd" d="M24.6573 31.1198C22.2396 32.1329 19.5848 32.6927 16.7992 32.6927C9.97668 32.6927 3.93842 29.3348 0.247005 24.1814C0.0842525 23.1449 -0.000244141 22.0824 -0.000244141 21.0002C-0.000244141 9.76291 9.10934 0.65332 20.3466 0.65332C27.1691 0.65332 33.2074 4.01126 36.8988 9.16456C37.0616 10.2011 37.1461 11.2636 37.1461 12.3459C37.1461 17.4711 35.251 22.1538 32.1234 25.7314C31.8473 24.6126 31.6421 23.1284 31.5866 20.9656C31.5699 15.6432 27.7209 11.223 22.6542 10.3198C22.292 10.2552 21.9708 10.5426 21.9708 10.9106V15.3575C21.9708 15.6429 22.1683 15.8875 22.4386 15.979C24.5313 16.6878 26.0375 18.6681 26.0375 21.0002C26.0375 23.3324 24.5313 25.3127 22.4386 26.0215C22.1683 26.113 21.9708 26.3576 21.9708 26.643V31.0899C21.9708 31.4579 22.292 31.7453 22.6542 31.6807C23.3469 31.5572 24.0168 31.368 24.6573 31.1198ZM25.7923 30.6024C26.4066 30.2993 27.0034 29.966 27.5807 29.6046C27.5613 29.5587 27.5421 29.5126 27.5229 29.4661C26.9856 29.8974 26.4064 30.2785 25.7923 30.6024ZM19.5045 15.3573C19.5045 15.6428 19.307 15.8873 19.0366 15.9788C16.9437 16.6875 15.4372 18.6679 15.4372 21.0002C15.4372 23.3326 16.9437 25.313 19.0366 26.0217C19.307 26.1132 19.5045 26.3577 19.5045 26.6432V31.09C19.5045 31.458 19.1834 31.7454 18.8211 31.6808C13.7432 30.7759 9.88806 26.3383 9.88806 21.0002C9.88806 15.6622 13.7432 11.2246 18.8211 10.3196C19.1834 10.2551 19.5045 10.5425 19.5045 10.9105V15.3573Z" fill="url(#paint1_linear_16067_1036)"/>
<path d="M180.196 12.9058C181.692 12.9058 183.027 13.2165 184.201 13.838C185.398 14.4595 186.33 15.3803 186.998 16.6003C187.665 17.8202 187.999 19.2934 187.999 21.0198V32.2414H184.098V21.6068C184.098 19.9034 183.672 18.6029 182.82 17.7051C181.968 16.7844 180.806 16.324 179.333 16.324C177.86 16.324 176.686 16.7844 175.811 17.7051C174.959 18.6029 174.533 19.9034 174.533 21.6068V32.2414H170.597V13.2165H174.533V15.3918C175.178 14.6091 175.995 13.9991 176.985 13.5618C177.998 13.1244 179.068 12.9058 180.196 12.9058Z" fill="#B2B2B2"/>
<path d="M146.92 22.6426C146.92 20.7321 147.312 19.0402 148.094 17.567C148.9 16.0938 149.982 14.9544 151.34 14.1488C152.721 13.3201 154.24 12.9058 155.898 12.9058C157.394 12.9058 158.694 13.205 159.799 13.8035C160.927 14.379 161.825 15.104 162.493 15.9788V13.2165H166.463V32.2414H162.493V29.4101C161.825 30.3079 160.916 31.056 159.765 31.6544C158.614 32.2529 157.302 32.5522 155.829 32.5522C154.194 32.5522 152.698 32.1378 151.34 31.3092C149.982 30.4575 148.9 29.2835 148.094 27.7873C147.312 26.2681 146.92 24.5532 146.92 22.6426ZM162.493 22.7117C162.493 21.3996 162.216 20.2602 161.664 19.2934C161.134 18.3267 160.432 17.5901 159.558 17.0836C158.683 16.5772 157.739 16.324 156.726 16.324C155.714 16.324 154.77 16.5772 153.895 17.0836C153.02 17.567 152.307 18.2921 151.754 19.2589C151.225 20.2027 150.96 21.3306 150.96 22.6426C150.96 23.9547 151.225 25.1056 151.754 26.0954C152.307 27.0852 153.02 27.8449 153.895 28.3743C154.793 28.8807 155.737 29.1339 156.726 29.1339C157.739 29.1339 158.683 28.8807 159.558 28.3743C160.432 27.8679 161.134 27.1313 161.664 26.1645C162.216 25.1747 162.493 24.0238 162.493 22.7117Z" fill="#B2B2B2"/>
<path d="M127.253 22.7117C127.253 20.7551 127.644 19.0402 128.427 17.567C129.233 16.0708 130.338 14.9199 131.742 14.1142C133.146 13.3086 134.757 12.9058 136.576 12.9058C138.877 12.9058 140.777 13.4582 142.273 14.5631C143.792 15.645 144.816 17.1987 145.346 19.2244H141.099C140.753 18.2806 140.201 17.544 139.441 17.0146C138.682 16.4852 137.727 16.2204 136.576 16.2204C134.964 16.2204 133.675 16.7959 132.708 17.9468C131.765 19.0748 131.293 20.663 131.293 22.7117C131.293 24.7604 131.765 26.3602 132.708 27.5111C133.675 28.662 134.964 29.2375 136.576 29.2375C138.854 29.2375 140.362 28.2362 141.099 26.2336H145.346C144.793 28.1671 143.757 29.7094 142.238 30.8603C140.719 31.9882 138.831 32.5522 136.576 32.5522C134.757 32.5522 133.146 32.1493 131.742 31.3437C130.338 30.515 129.233 29.3641 128.427 27.8909C127.644 26.3947 127.253 24.6683 127.253 22.7117Z" fill="#B2B2B2"/>
<path d="M118.062 32.5522C116.566 32.5522 115.219 32.2875 114.023 31.758C112.849 31.2056 111.916 30.469 111.226 29.5482C110.535 28.6045 110.167 27.5571 110.121 26.4062H114.195C114.264 27.2118 114.644 27.8909 115.335 28.4433C116.048 28.9728 116.934 29.2375 117.993 29.2375C119.098 29.2375 119.95 29.0303 120.548 28.616C121.17 28.1786 121.481 27.6262 121.481 26.9586C121.481 26.2451 121.135 25.7156 120.445 25.3704C119.777 25.0251 118.707 24.6453 117.234 24.2309C115.806 23.8396 114.644 23.4598 113.746 23.0915C112.849 22.7232 112.066 22.1593 111.398 21.3996C110.754 20.64 110.432 19.6387 110.432 18.3957C110.432 17.3829 110.731 16.4621 111.329 15.6335C111.928 14.7818 112.78 14.1142 113.884 13.6308C115.012 13.1475 116.301 12.9058 117.752 12.9058C119.915 12.9058 121.653 13.4582 122.965 14.5631C124.3 15.645 125.014 17.1297 125.106 19.0172H121.17C121.101 18.1655 120.755 17.4865 120.134 16.9801C119.512 16.4736 118.672 16.2204 117.613 16.2204C116.578 16.2204 115.783 16.4161 115.231 16.8074C114.679 17.1987 114.402 17.7167 114.402 18.3612C114.402 18.8676 114.586 19.2934 114.955 19.6387C115.323 19.984 115.772 20.2602 116.301 20.4674C116.831 20.6515 117.613 20.8932 118.649 21.1925C120.03 21.5608 121.158 21.9406 122.033 22.3319C122.931 22.7002 123.702 23.2526 124.346 23.9892C124.991 24.7258 125.325 25.7041 125.348 26.9241C125.348 28.006 125.048 28.9728 124.45 29.8245C123.851 30.6762 123 31.3437 121.895 31.8271C120.813 32.3105 119.535 32.5522 118.062 32.5522Z" fill="#B2B2B2"/>
<path d="M108.704 16.4277H105.182V32.2415H101.211V16.4277H98.967V13.2166H101.211V11.87C101.211 9.68325 101.787 8.09497 102.938 7.10517C104.112 6.09235 105.942 5.58594 108.428 5.58594V8.86609C107.231 8.86609 106.391 9.09628 105.907 9.55665C105.424 9.99401 105.182 10.7651 105.182 11.87V13.2166H108.704V16.4277Z" fill="#B2B2B2"/>
<path d="M96.596 6.69092V32.2416H92.6598V6.69092H96.596Z" fill="#B2B2B2"/>
<path d="M89.8223 22.2628C89.8223 22.9764 89.7763 23.6209 89.6842 24.1964H75.1479C75.263 25.7156 75.827 26.9356 76.8398 27.8564C77.8526 28.7771 79.0956 29.2375 80.5688 29.2375C82.6865 29.2375 84.1827 28.3513 85.0574 26.5788H89.3044C88.7289 28.3282 87.6816 29.7669 86.1623 30.8948C84.6661 31.9997 82.8016 32.5522 80.5688 32.5522C78.7503 32.5522 77.116 32.1493 75.6658 31.3437C74.2387 30.515 73.1108 29.3641 72.2821 27.8909C71.4764 26.3947 71.0736 24.6683 71.0736 22.7117C71.0736 20.7551 71.4649 19.0402 72.2476 17.567C73.0532 16.0708 74.1696 14.9199 75.5968 14.1142C77.0469 13.3086 78.7043 12.9058 80.5688 12.9058C82.3643 12.9058 83.964 13.2971 85.3682 14.0797C86.7723 14.8623 87.8657 15.9672 88.6483 17.3944C89.431 18.7985 89.8223 20.4213 89.8223 22.2628ZM85.7135 21.0198C85.6904 19.5697 85.1725 18.4072 84.1597 17.5325C83.1469 16.6578 81.8924 16.2204 80.3962 16.2204C79.0381 16.2204 77.8756 16.6578 76.9088 17.5325C75.9421 18.3842 75.3666 19.5466 75.1824 21.0198H85.7135Z" fill="#B2B2B2"/>
<path d="M48.7085 22.6426C48.7085 20.7321 49.0998 19.0402 49.8824 17.567C50.6881 16.0938 51.77 14.9544 53.1281 14.1488C54.5092 13.3201 56.0284 12.9058 57.6858 12.9058C59.182 12.9058 60.4825 13.205 61.5874 13.8035C62.7153 14.379 63.6131 15.104 64.2806 15.9788V13.2165H68.2513V32.2414H64.2806V29.4101C63.6131 30.3079 62.7038 31.056 61.5529 31.6544C60.402 32.2529 59.0899 32.5522 57.6167 32.5522C55.9824 32.5522 54.4862 32.1378 53.1281 31.3092C51.77 30.4575 50.6881 29.2835 49.8824 27.7873C49.0998 26.2681 48.7085 24.5532 48.7085 22.6426ZM64.2806 22.7117C64.2806 21.3996 64.0044 20.2602 63.4519 19.2934C62.9225 18.3267 62.2204 17.5901 61.3457 17.0836C60.471 16.5772 59.5273 16.324 58.5144 16.324C57.5016 16.324 56.5579 16.5772 55.6831 17.0836C54.8084 17.567 54.0949 18.2921 53.5424 19.2589C53.013 20.2027 52.7483 21.3306 52.7483 22.6426C52.7483 23.9547 53.013 25.1056 53.5424 26.0954C54.0949 27.0852 54.8084 27.8449 55.6831 28.3743C56.5809 28.8807 57.5246 29.1339 58.5144 29.1339C59.5273 29.1339 60.471 28.8807 61.3457 28.3743C62.2204 27.8679 62.9225 27.1313 63.4519 26.1645C64.0044 25.1747 64.2806 24.0238 64.2806 22.7117Z" fill="#B2B2B2"/>
<defs>
<linearGradient id="paint0_linear_16067_1036" x1="29.2591" y1="11.2637" x2="11.2817" y2="39.9594" gradientUnits="userSpaceOnUse">
<stop stop-color="#C4C4C4"/>
<stop offset="0.84788" stop-color="#DEDEDE"/>
</linearGradient>
<linearGradient id="paint1_linear_16067_1036" x1="25.7118" y1="2.60936" x2="7.73438" y2="31.3051" gradientUnits="userSpaceOnUse">
<stop offset="0.152119" stop-color="#DEDEDE"/>
<stop offset="1" stop-color="#C4C4C4"/>
</linearGradient>
</defs>
</svg>
