<svg width="136" height="36" viewBox="0 0 136 36" fill="none" xmlns="http://www.w3.org/2000/svg">
<g id="&#229;&#155;&#190;&#229;&#177;&#130; 1">
<path id="Vector" d="M12.0534 21.5308H4.89868L12.7844 0H19.9391L12.0534 21.5308Z" fill="#B2B2B2"/>
<path id="Vector_2" d="M20.7052 21.5308H27.8599L19.9742 0H12.8225L20.7052 21.5308Z" fill="#B2B2B2"/>
<path id="Vector_3" d="M9.83228 14.069V19.4722H22.634V14.069H9.83228Z" fill="#B2B2B2"/>
<path id="Vector_4" d="M54.5818 21.5308H47.4301L55.3158 0H62.4675L54.5818 21.5308Z" fill="#B2B2B2"/>
<path id="Vector_5" d="M63.2354 21.5308H70.3871L62.5044 0H55.3497L63.2354 21.5308Z" fill="#B2B2B2"/>
<path id="Vector_6" d="M52.3596 14.069V19.4722H65.1613V14.069H52.3596Z" fill="#B2B2B2"/>
<path id="Vector_7" d="M118.589 0H111.438V21.5308H118.589V0Z" fill="#B2B2B2"/>
<path id="Vector_8" d="M118.589 0H111.438L123.944 21.5308H131.099L118.589 0Z" fill="#B2B2B2"/>
<path id="Vector_9" d="M131.095 0H123.944V21.5308H131.095V0Z" fill="#B2B2B2"/>
<path id="Vector_10" d="M84.7561 16.1281V21.5312H109.534V16.1281H84.7561Z" fill="#B2B2B2"/>
<path id="Vector_11" d="M93.8323 0.000198364V5.40332L109.531 5.40332V0.000198364L93.8323 0.000198364Z" fill="#B2B2B2"/>
<path id="Vector_12" d="M93.8323 8.06416V13.4673L109.531 13.4673V8.06416H93.8323Z" fill="#B2B2B2"/>
<path id="Vector_13" d="M79.441 0H72.2893V21.5308H79.441V0Z" fill="#B2B2B2"/>
<path id="Vector_14" d="M100.986 0H93.8342V21.5308H100.986V0Z" fill="#B2B2B2"/>
<path id="Vector_15" d="M91.9503 0H84.7986L77.7383 12.1502L72.2893 21.5308H79.444L91.9503 0Z" fill="#B2B2B2"/>
<path id="Vector_16" d="M82.1229 4.60693L78.5471 10.7638L84.8002 21.5307H91.9519L82.1229 4.60693Z" fill="#B2B2B2"/>
<path id="Vector_17" d="M46.311 0L42.0011 11.7658L39.7898 5.72701H35.55L33.3387 11.7658L29.0288 0H21.8772L29.7629 21.5308H36.9145L37.6699 19.4694L38.4253 21.5308H45.58L53.4626 0H46.311Z" fill="#B2B2B2"/>
<path id="Vector_18" d="M83.9875 26.4223C84.6357 26.4294 85.2675 26.626 85.8041 26.9876C86.3407 27.3491 86.7583 27.8597 87.0048 28.4556C87.2514 29.0515 87.3159 29.7063 87.1904 30.3384C87.065 30.9705 86.755 31.5519 86.2993 32.0101C86.0015 32.3196 85.6429 32.565 85.2457 32.7311C84.8486 32.8972 84.4214 32.9804 83.9905 32.9757H81.5752V35.5456H79.6837V26.4223H83.9875ZM81.5752 30.9839H83.7408C84.0347 30.9689 84.3116 30.8422 84.5142 30.6302C84.7169 30.4181 84.8299 30.1368 84.8299 29.8443C84.8299 29.5518 84.7169 29.2705 84.5142 29.0584C84.3116 28.8463 84.0347 28.7197 83.7408 28.7046H81.5752V30.9839ZM83.9905 25.9683H79.2268V35.9996H82.032V33.4297H83.9905C84.9676 33.4021 85.8954 32.9969 86.5767 32.3002C87.258 31.6036 87.6391 30.6704 87.6391 29.699C87.6391 28.7275 87.258 27.7944 86.5767 27.0977C85.8954 26.4011 84.9676 25.9959 83.9905 25.9683ZM82.032 30.5299V29.1587H83.7408C83.8315 29.1582 83.9214 29.176 84.0052 29.2108C84.0889 29.2457 84.1647 29.2969 84.2281 29.3615C84.3568 29.4902 84.429 29.6643 84.429 29.8458C84.429 30.0273 84.3568 30.2014 84.2281 30.3301C84.1646 30.3943 84.0887 30.4451 84.0049 30.4794C83.9212 30.5137 83.8313 30.5309 83.7408 30.5299H82.032Z" fill="#B2B2B2"/>
<path id="Vector_19" d="M46.7144 25.9595H0.000244141L46.7144 28.0451V25.9595Z" fill="#B2B2B2"/>
<path id="Vector_20" d="M89.2854 25.9595H136L89.2854 28.0451V25.9595Z" fill="#B2B2B2"/>
<path id="Vector_21" d="M69.7896 26.4135L66.4391 35.5459H63.7496L63.509 34.883L63.0796 33.7115L62.6501 34.883L62.4064 35.5459H59.6987L56.3482 26.4135H58.7118L60.6124 31.6017L61.0419 32.7732L61.4713 31.6017L63.0613 27.258L64.2979 30.6392L64.6512 31.6017L65.0807 32.7732L65.5101 31.6017L67.4107 26.4135H69.7713M70.4261 25.9595H67.1092L65.0989 31.4474L64.7456 30.4848L63.0887 25.9595H63.0674L61.0602 31.4474L59.0499 25.9595H55.6995L59.3941 35.9999H62.7293L63.0826 35.0373L63.4329 35.9999H66.7833L70.4596 25.9595H70.4261Z" fill="#B2B2B2"/>
<path id="Vector_22" d="M74.3366 26.4135L77.687 35.5459H75.3234L75.0828 34.883L74.9731 34.5803H71.0135L70.9039 34.883L70.6633 35.5459H68.2997L71.6501 26.4135H74.3609M71.6197 32.9729H74.4097L74.1873 32.3676L73.4441 30.3395L73.0147 29.1681L72.5852 30.3395L71.842 32.3676L71.6197 32.9729ZM74.6899 25.9595H71.3395L67.6174 35.9999H70.9679L71.3181 35.0404H74.6503L75.0006 35.9999H78.351L74.6564 25.9595H74.6899ZM72.2715 32.5189L73.0147 30.4908L73.7579 32.5189H72.2715Z" fill="#B2B2B2"/>
<path id="Vector_23" d="M54.4586 26.4224L55.1439 28.2991H50.7061L51.3152 29.0407C51.3366 29.0649 51.3609 29.0952 54.5773 32.4218C54.7959 32.7371 54.9137 33.1105 54.9154 33.4934C54.9195 33.7605 54.8704 34.0258 54.7711 34.2741C54.6718 34.5224 54.5242 34.7488 54.3367 34.9403C54.1668 35.1316 53.9577 35.2846 53.7234 35.3891C53.4891 35.4935 53.235 35.5469 52.9783 35.5456H48.2663V33.6629H53.2585L52.5183 32.894L49.2776 29.5371C49.0461 29.2322 48.9297 28.8562 48.9486 28.4747C48.9433 28.2079 48.9911 27.9427 49.0894 27.6943C49.1877 27.446 49.3344 27.2195 49.5212 27.0278C49.6903 26.8355 49.8993 26.6818 50.1338 26.5773C50.3683 26.4728 50.6227 26.42 50.8797 26.4224H54.4586ZM54.7631 25.9683H50.8645C50.5449 25.9658 50.2284 26.0312 49.9363 26.1601C49.6443 26.2891 49.3833 26.4786 49.171 26.716C48.7164 27.189 48.467 27.8206 48.4765 28.4747C48.4565 28.9678 48.6142 29.4519 48.9212 29.8398L52.1742 33.2088H47.8186V35.9997H52.9965C53.3155 36.0012 53.6312 35.9354 53.9226 35.8065C54.2141 35.6776 54.4746 35.4886 54.687 35.252C55.1446 34.7803 55.3973 34.1486 55.3906 33.4934C55.3876 33.0074 55.2345 32.534 54.952 32.1373C52.7955 29.9074 51.7051 28.7804 51.6807 28.7562H55.7957L54.7784 25.9714L54.7631 25.9683Z" fill="#B2B2B2"/>
</g>
</svg>
