<svg width="30" height="30" viewBox="0 0 35 30" fill="none" xmlns="http://www.w3.org/2000/svg">
<path d="M0 0V27.6316C0 28.9307 1.06929 30 2.36842 30H32.3684C33.6675 30 34.7368 28.9307 34.7368 27.6316V0H0ZM21.3158 6.31579H13.421C12.5516 6.31579 11.8421 5.60624 11.8421 4.73683C11.8421 3.86741 12.5516 3.1579 13.421 3.1579H21.3158C22.1852 3.1579 22.8947 3.86741 22.8947 4.73683C22.8947 5.60624 22.1852 6.31579 21.3158 6.31579Z" fill="white"/>
<path d="M17.3684 20.8061H30.7195C28.2312 15.9493 23.1945 12.6216 17.3684 12.6216C12.072 12.6216 7.42505 15.3798 4.75684 19.527L10.8628 30H10.9827C10.7029 29.2605 10.543 28.461 10.543 27.6216C10.553 23.8541 13.6009 20.8061 17.3684 20.8061Z" fill="#DB4437"/>
<path d="M4.75742 19.527C3.24843 21.8654 2.36902 24.6436 2.36902 27.6216C2.36902 28.431 2.44897 29.2205 2.57888 30H4.75742H10.8733L4.75742 19.527Z" fill="#0F9D58"/>
<path d="M30.7196 20.806H17.3685C21.136 20.806 24.184 23.864 24.184 27.6215C24.184 28.4609 24.0241 29.2604 23.7443 29.9999H32.1587C32.2786 29.2204 32.3685 28.4309 32.3685 27.6215C32.3685 25.1631 31.7689 22.8547 30.7196 20.806Z" fill="#FFCD40"/>
<path d="M17.3692 20.806C13.6017 20.806 10.5537 23.864 10.5537 27.6215C10.5537 28.4609 10.7136 29.2604 10.9934 29.9999H12.0627H12.4724C12.4125 29.87 12.3525 29.7401 12.2926 29.6002C12.0527 28.9906 11.9128 28.321 11.9128 27.6215C11.9128 24.8933 13.9215 22.6348 16.5397 22.2351C16.8095 22.1951 17.0894 22.1651 17.3692 22.1651C17.649 22.1651 17.9288 22.1951 18.1986 22.2351C20.8169 22.6348 22.8255 24.8933 22.8255 27.6215C22.8255 28.321 22.6856 28.9906 22.4458 29.6002C22.3958 29.7401 22.3358 29.87 22.2659 29.9999H22.6756H23.7449C24.0247 29.2604 24.1846 28.4609 24.1846 27.6215C24.1846 23.854 21.1366 20.806 17.3692 20.806Z" fill="#F1F1F1"/>
<path d="M18.198 22.2351C17.9282 22.1951 17.6484 22.1652 17.3686 22.1652C17.0888 22.1652 16.809 22.1951 16.5391 22.2351C13.9209 22.6348 11.9122 24.8934 11.9122 27.6215C11.9122 28.3211 12.0521 28.9906 12.292 29.6002C12.3419 29.7401 12.4019 29.87 12.4719 29.9999H22.2753C22.3353 29.87 22.3952 29.7401 22.4552 29.6002C22.695 28.9906 22.8349 28.3211 22.8349 27.6215C22.8249 24.8934 20.8163 22.6348 18.198 22.2351Z" fill="#4285F4"/>
<path d="M0 0H34.7368V15H0V0Z" fill="#212121" fill-opacity="0.05"/>
</svg>
