<svg width="28" height="28" viewBox="0 0 28 28" fill="none" xmlns="http://www.w3.org/2000/svg">
<g id="cloud_done">
<mask id="mask0_16169_10530" style="mask-type:alpha" maskUnits="userSpaceOnUse" x="0" y="0" width="28" height="28">
<rect id="Bounding box" width="28" height="28" fill="#D9D9D9"/>
</mask>
<g mask="url(#mask0_16169_10530)">
<path id="cloud_done_2" d="M12.075 19.8332L18.6667 13.2415L16.975 11.5498L12.0458 16.479L9.59582 14.029L7.93332 15.6915L12.075 19.8332ZM7.58332 23.3332C5.81388 23.3332 4.30207 22.7207 3.04791 21.4957C1.79374 20.2707 1.16666 18.7734 1.16666 17.004C1.16666 15.4873 1.6236 14.136 2.53749 12.9498C3.45138 11.7637 4.64721 11.0054 6.12499 10.6748C6.6111 8.88595 7.58332 7.43734 9.04166 6.329C10.5 5.22067 12.1528 4.6665 14 4.6665C16.275 4.6665 18.2049 5.45887 19.7896 7.04359C21.3743 8.62831 22.1667 10.5582 22.1667 12.8332C23.5083 12.9887 24.6215 13.5672 25.5062 14.5686C26.391 15.57 26.8333 16.7415 26.8333 18.0832C26.8333 19.5415 26.3229 20.7811 25.3021 21.8019C24.2812 22.8228 23.0417 23.3332 21.5833 23.3332H7.58332ZM7.58332 20.9998H21.5833C22.4 20.9998 23.0903 20.7179 23.6542 20.154C24.218 19.5901 24.5 18.8998 24.5 18.0832C24.5 17.2665 24.218 16.5762 23.6542 16.0123C23.0903 15.4484 22.4 15.1665 21.5833 15.1665H19.8333V12.8332C19.8333 11.2193 19.2646 9.84359 18.1271 8.70609C16.9896 7.56859 15.6139 6.99984 14 6.99984C12.3861 6.99984 11.0104 7.56859 9.87291 8.70609C8.73541 9.84359 8.16666 11.2193 8.16666 12.8332H7.58332C6.45555 12.8332 5.49305 13.2318 4.69582 14.029C3.8986 14.8262 3.49999 15.7887 3.49999 16.9165C3.49999 18.0443 3.8986 19.0068 4.69582 19.804C5.49305 20.6012 6.45555 20.9998 7.58332 20.9998Z" fill="white"/>
</g>
</g>
</svg>
