<svg width="32" height="32" viewBox="0 0 32 32" fill="none" xmlns="http://www.w3.org/2000/svg">
<g id="my_connect site">
<path id="Vector" d="M27.9334 29.8334L24 25.9001V28.8667H21.3334V21.3334H28.8667V24.0001H25.8667L29.8 27.9334L27.9334 29.8334ZM16 29.3334C14.1556 29.3334 12.4222 28.9834 10.8 28.2834C9.1778 27.5834 7.76669 26.6334 6.56669 25.4334C5.36669 24.2334 4.41669 22.8223 3.71669 21.2001C3.01669 19.5779 2.66669 17.8445 2.66669 16.0001C2.66669 14.1556 3.01669 12.4223 3.71669 10.8001C4.41669 9.17786 5.36669 7.76675 6.56669 6.56675C7.76669 5.36675 9.1778 4.41675 10.8 3.71675C12.4222 3.01675 14.1556 2.66675 16 2.66675C17.8445 2.66675 19.5778 3.01675 21.2 3.71675C22.8222 4.41675 24.2334 5.36675 25.4334 6.56675C26.6334 7.76675 27.5834 9.17786 28.2834 10.8001C28.9834 12.4223 29.3334 14.1556 29.3334 16.0001C29.3334 16.4445 29.3111 16.889 29.2667 17.3334C29.2222 17.7779 29.1556 18.2223 29.0667 18.6667H26.3334C26.4445 18.2223 26.5278 17.7779 26.5834 17.3334C26.6389 16.889 26.6667 16.4445 26.6667 16.0001C26.6667 15.5556 26.6389 15.1112 26.5834 14.6667C26.5278 14.2223 26.4445 13.7779 26.3334 13.3334H21.8C21.8667 13.7779 21.9167 14.2223 21.95 14.6667C21.9834 15.1112 22 15.5556 22 16.0001C22 16.4445 21.9834 16.889 21.95 17.3334C21.9167 17.7779 21.8667 18.2223 21.8 18.6667H19.1334C19.2 18.2223 19.25 17.7779 19.2834 17.3334C19.3167 16.889 19.3334 16.4445 19.3334 16.0001C19.3334 15.5556 19.3167 15.1112 19.2834 14.6667C19.25 14.2223 19.2 13.7779 19.1334 13.3334H12.8667C12.8 13.7779 12.75 14.2223 12.7167 14.6667C12.6834 15.1112 12.6667 15.5556 12.6667 16.0001C12.6667 16.4445 12.6834 16.889 12.7167 17.3334C12.75 17.7779 12.8 18.2223 12.8667 18.6667H17.3334V21.3334H13.4667C13.7334 22.289 14.0778 23.2056 14.5 24.0834C14.9222 24.9612 15.4222 25.8001 16 26.6001C16.4445 26.6001 16.8889 26.5723 17.3334 26.5168C17.7778 26.4612 18.2222 26.4112 18.6667 26.3667V29.1001C18.2222 29.1445 17.7778 29.1945 17.3334 29.2501C16.8889 29.3056 16.4445 29.3334 16 29.3334ZM5.66669 18.6667H10.2C10.1334 18.2223 10.0834 17.7779 10.05 17.3334C10.0167 16.889 10 16.4445 10 16.0001C10 15.5556 10.0167 15.1112 10.05 14.6667C10.0834 14.2223 10.1334 13.7779 10.2 13.3334H5.66669C5.55558 13.7779 5.47224 14.2223 5.41669 14.6667C5.36113 15.1112 5.33335 15.5556 5.33335 16.0001C5.33335 16.4445 5.36113 16.889 5.41669 17.3334C5.47224 17.7779 5.55558 18.2223 5.66669 18.6667ZM6.80002 10.6667H10.7334C10.9334 9.84453 11.1834 9.03897 11.4834 8.25008C11.7834 7.46119 12.1334 6.68897 12.5334 5.93341C11.3111 6.33341 10.2111 6.93897 9.23335 7.75008C8.25558 8.56119 7.44447 9.53341 6.80002 10.6667ZM12.5334 26.0667C12.1334 25.3112 11.7834 24.539 11.4834 23.7501C11.1834 22.9612 10.9334 22.1556 10.7334 21.3334H6.80002C7.44447 22.4667 8.25558 23.439 9.23335 24.2501C10.2111 25.0612 11.3111 25.6667 12.5334 26.0667ZM13.4667 10.6667H18.5334C18.2667 9.71119 17.9222 8.79453 17.5 7.91675C17.0778 7.03897 16.5778 6.20008 16 5.40008C15.4222 6.20008 14.9222 7.03897 14.5 7.91675C14.0778 8.79453 13.7334 9.71119 13.4667 10.6667ZM21.2667 10.6667H25.2C24.5556 9.53341 23.7445 8.56119 22.7667 7.75008C21.7889 6.93897 20.6889 6.33341 19.4667 5.93341C19.8667 6.68897 20.2167 7.46119 20.5167 8.25008C20.8167 9.03897 21.0667 9.84453 21.2667 10.6667Z" fill="#B2B2B2"/>
</g>
</svg>
