<svg width="28" height="29" viewBox="0 0 28 29" fill="none" xmlns="http://www.w3.org/2000/svg">
<g id="database_search">
<mask id="mask0_16221_32181" style="mask-type:alpha" maskUnits="userSpaceOnUse" x="0" y="0" width="28" height="29">
<rect id="Bounding box" y="0.5" width="28" height="28" fill="#D9D9D9"/>
</mask>
<g mask="url(#mask0_16221_32181)">
<path id="database_search_2" d="M14 11.0292C15.6722 11.0292 17.3979 10.7764 19.1771 10.2708C20.9563 9.76528 21.9528 9.24028 22.1667 8.69583C21.9528 8.13194 20.9757 7.59722 19.2354 7.09167C17.4951 6.58611 15.75 6.33333 14 6.33333C12.2306 6.33333 10.4951 6.58125 8.79375 7.07708C7.09236 7.57292 6.10556 8.1125 5.83333 8.69583C6.125 9.25972 7.14097 9.78958 8.88125 10.2854C10.6215 10.7813 12.3278 11.0292 14 11.0292ZM12.2208 22.5792C12.4153 23.0264 12.6389 23.4542 12.8917 23.8625C13.1444 24.2708 13.4361 24.65 13.7667 25C12.3472 24.9806 11.0104 24.8493 9.75625 24.6063C8.50208 24.3632 7.41319 24.0326 6.48958 23.6146C5.56597 23.1965 4.83681 22.7056 4.30208 22.1417C3.76736 21.5778 3.5 20.975 3.5 20.3333V8.66667C3.5 8.025 3.77708 7.42222 4.33125 6.85833C4.88542 6.29444 5.63889 5.79861 6.59167 5.37083C7.54445 4.94306 8.65764 4.60764 9.93125 4.36458C11.2049 4.12153 12.5611 4 14 4C15.4389 4 16.7951 4.12153 18.0688 4.36458C19.3424 4.60764 20.4556 4.94306 21.4083 5.37083C22.3611 5.79861 23.1146 6.29444 23.6688 6.85833C24.2229 7.42222 24.5 8.025 24.5 8.66667C24.5 9.30833 24.2229 9.91111 23.6688 10.475C23.1146 11.0389 22.3611 11.5347 21.4083 11.9625C20.4556 12.3903 19.3424 12.7257 18.0688 12.9688C16.7951 13.2118 15.4389 13.3333 14 13.3333C12.3472 13.3333 10.8208 13.1875 9.42083 12.8958C8.02083 12.6042 6.825 12.1764 5.83333 11.6125V14.5583C6.61111 15.2778 7.58333 15.8028 8.75 16.1333C9.91667 16.4639 11.0931 16.6778 12.2792 16.775C12.1236 17.0667 11.9972 17.4021 11.9 17.7813C11.8028 18.1604 11.7347 18.5833 11.6958 19.05C10.5292 18.9139 9.44514 18.7194 8.44375 18.4667C7.44236 18.2139 6.57222 17.8736 5.83333 17.4458V20.3333C6.10556 20.8194 6.85417 21.2764 8.07917 21.7042C9.30417 22.1319 10.6847 22.4236 12.2208 22.5792ZM25.2 27.3333L22.05 24.1833C21.6222 24.4361 21.175 24.6354 20.7083 24.7813C20.2417 24.9271 19.7556 25 19.25 25C17.7917 25 16.5521 24.4896 15.5313 23.4688C14.5104 22.4479 14 21.2083 14 19.75C14 18.2917 14.5104 17.0521 15.5313 16.0313C16.5521 15.0104 17.7917 14.5 19.25 14.5C20.7083 14.5 21.9479 15.0104 22.9688 16.0313C23.9896 17.0521 24.5 18.2917 24.5 19.75C24.5 20.2556 24.4271 20.7417 24.2813 21.2083C24.1354 21.675 23.9361 22.1222 23.6833 22.55L26.8333 25.7L25.2 27.3333ZM19.25 22.6667C20.0667 22.6667 20.7569 22.3847 21.3208 21.8208C21.8847 21.2569 22.1667 20.5667 22.1667 19.75C22.1667 18.9333 21.8847 18.2431 21.3208 17.6792C20.7569 17.1153 20.0667 16.8333 19.25 16.8333C18.4333 16.8333 17.7431 17.1153 17.1792 17.6792C16.6153 18.2431 16.3333 18.9333 16.3333 19.75C16.3333 20.5667 16.6153 21.2569 17.1792 21.8208C17.7431 22.3847 18.4333 22.6667 19.25 22.6667Z" fill="white"/>
</g>
</g>
</svg>
