<svg width="172" height="32" viewBox="0 0 172 32" fill="none" xmlns="http://www.w3.org/2000/svg">
<g id="Frame 3851">
<g id="Group">
<g id="Vector">
<path d="M34.3422 15.89L25.9365 1.125L8.94909 1.23502L0.367371 16.11L8.77305 30.875L25.7605 30.765L34.3422 15.89ZM19.7753 27.3543L10.7535 27.4203L6.28656 19.5867L8.31096 16.066L11.7657 22.1612L14.9343 16.6601L17.9269 18.3985L14.7583 23.8996L21.7777 23.8556L19.7753 27.3543ZM26.3766 15.934L22.9219 9.83876L19.7533 15.3399L16.7607 13.6015L19.9293 8.10041L12.9099 8.14442L14.9343 4.62371L23.9561 4.55769L28.423 12.3913L26.3766 15.934Z" fill="#B2B2B2"/>
</g>
<g id="Union">
<path d="M56.217 9.28856V6.25195H44.6207H41.584V9.28856V14.7677V17.8263V22.7113V25.7479H56.217V22.7113H44.6207V17.8263H54.3906V14.7677H44.6207V9.28856H56.217ZM96.155 12.436V11.1151V11.0938V11.0711H99.2137V11.0938V25.704V25.7267H96.155V25.704V24.3184C94.9448 25.1986 93.4705 25.7047 91.8862 25.7047C87.8594 25.7047 84.5807 22.4481 84.5807 18.3992L84.5807 18.3879L84.5807 18.3766C84.5807 14.3497 87.8374 11.0711 91.8862 11.0711C92.9538 11.0711 93.9534 11.3044 94.8591 11.7128C95.3161 11.9123 95.7492 12.1556 96.155 12.436ZM87.6173 18.3986C87.6173 20.753 89.5317 22.6674 91.8862 22.6674C94.2407 22.6674 96.155 20.753 96.155 18.3986C96.155 16.0441 94.2407 14.1297 91.8862 14.1297C89.5317 14.1297 87.6173 16.0441 87.6173 18.3986ZM108.653 11.0929C112.68 11.0929 115.959 14.3495 115.959 18.3983C115.959 18.4203 115.959 18.4203 115.981 18.4643L115.981 18.4644V25.7698H112.922V18.4644V18.4423C112.922 16.0879 111.008 14.1735 108.653 14.1735C106.299 14.1735 104.385 16.0879 104.385 18.4423V18.4644V25.7698H101.326V11.1369H104.385V12.4791C105.595 11.599 107.069 11.0929 108.653 11.0929ZM78.1775 12.4796V11.1373H75.1188V25.7703H78.1775V18.4648V18.4428C78.1775 16.0883 80.0918 14.174 82.4463 14.174V11.1153C80.84 11.0933 79.3657 11.5994 78.1775 12.4796ZM167.163 11.1373V12.4796C168.352 11.5994 169.826 11.0933 171.432 11.1153V14.174C169.078 14.174 167.163 16.0883 167.163 18.4428V18.4648V25.7703H164.105V11.1373H167.163ZM72.9845 6.25195H67.1974H64.1607H58.3736V9.28856H64.1607V25.7479H67.1974V9.28856H72.9845V6.25195ZM122.714 14.1733H122.516C121.768 14.1733 121.152 14.7894 121.13 15.5155C121.13 16.2417 121.746 16.8798 122.494 16.8798H124.893H128.106H128.304C130.746 16.8798 132.726 18.8822 132.726 21.3027C132.726 23.7452 130.724 25.7256 128.304 25.7256H125.509H123.485H121.438V27.552L118.094 24.2073L121.438 20.8626V22.689H123.485H124.893H125.509H128.304C129.03 22.689 129.668 22.0729 129.668 21.3247C129.668 20.5986 129.052 19.9604 128.304 19.9604H128.106H124.915H122.516C120.074 19.9604 118.094 17.958 118.094 15.5375C118.094 13.095 120.096 11.1146 122.516 11.1146H122.714H128.106H128.304C128.678 11.1146 129.03 10.9606 129.272 10.7186L127.996 9.44231H132.726V14.1733L131.428 12.875C130.614 13.6672 129.514 14.1733 128.304 14.1733H128.106H122.714ZM145.203 9.35394V6.31732C141.154 6.31732 137.897 9.59599 137.897 13.6228H134.861V16.6594H137.897V25.8133H140.934V16.6594H145.225V13.6228H140.934C140.934 11.2683 142.848 9.35394 145.203 9.35394ZM147.359 18.4864C147.359 14.4596 150.616 11.1809 154.665 11.1809C158.692 11.1809 161.97 14.4596 161.97 18.4864C161.97 19.0145 161.926 19.5206 161.816 20.0047H161.552H158.67H150.66C151.276 21.633 152.838 22.7773 154.665 22.7773C155.853 22.7773 156.931 22.2932 157.701 21.523L159.836 23.6575C158.516 24.9777 156.689 25.7919 154.665 25.7919C150.638 25.7919 147.359 22.5352 147.359 18.4864ZM154.665 14.2175C152.838 14.2175 151.276 15.3838 150.66 16.9901H158.67C158.054 15.3618 156.491 14.2175 154.665 14.2175Z" fill="#B2B2B2"/>
</g>
</g>
</g>
</svg>
