<svg width="28" height="29" viewBox="0 0 28 29" fill="none" xmlns="http://www.w3.org/2000/svg">
<g id="extension">
<mask id="mask0_16224_32197" style="mask-type:alpha" maskUnits="userSpaceOnUse" x="0" y="0" width="28" height="29">
<rect id="Bounding box" y="0.5" width="28" height="28" fill="#D9D9D9"/>
</mask>
<g mask="url(#mask0_16224_32197)">
<path id="extension_2" d="M10.2667 25H5.83333C5.19167 25 4.64236 24.7715 4.18542 24.3146C3.72847 23.8576 3.5 23.3083 3.5 22.6667V18.2333C4.43333 18.2333 5.25 17.9368 5.95 17.3437C6.65 16.7507 7 15.9972 7 15.0833C7 14.1694 6.65 13.416 5.95 12.8229C5.25 12.2299 4.43333 11.9333 3.5 11.9333V7.5C3.5 6.85833 3.72847 6.30903 4.18542 5.85208C4.64236 5.39514 5.19167 5.16667 5.83333 5.16667H10.1853C10.1853 4.35 10.4673 3.65972 11.0312 3.09583C11.5951 2.53194 12.6 2.25 13.4167 2.25C14.5422 2.25 15.2325 2.53194 15.7964 3.09583C16.3603 3.65972 16.6422 4.35 16.6422 5.16667H21C21.6417 5.16667 22.191 5.39514 22.6479 5.85208C23.1049 6.30903 23.3333 6.85833 23.3333 7.5V11.8911C24.15 11.8911 24.8403 12.173 25.4042 12.7369C25.9681 13.3008 26.25 14.4456 26.25 15.2623C26.25 16.079 25.9681 16.7692 25.4042 17.3331C24.8403 17.897 24.15 18.179 23.3333 18.179V22.6667C23.3333 23.3083 23.1049 23.8576 22.6479 24.3146C22.191 24.7715 21.6417 25 21 25H16.5667C16.5667 24.0278 16.2604 23.2014 15.6479 22.5208C15.0354 21.8403 14.2917 21.5 13.4167 21.5C12.5417 21.5 11.7979 21.8403 11.1854 22.5208C10.5729 23.2014 10.2667 24.0278 10.2667 25ZM5.83333 22.6667H8.3125C8.77917 21.3833 9.52778 20.4792 10.5583 19.9542C11.5889 19.4292 12.5417 19.1667 13.4167 19.1667C14.2917 19.1667 15.2444 19.4292 16.275 19.9542C17.3056 20.4792 18.0542 21.3833 18.5208 22.6667H21V15.8456H23.3333C23.4889 15.8456 23.625 15.7873 23.7417 15.6706C23.8583 15.554 23.9167 15.4178 23.9167 15.2623C23.9167 15.1067 23.8583 14.5161 23.7417 14.3994C23.625 14.2828 23.4889 14.2244 23.3333 14.2244H21V7.5H14.3089V5.16667C14.3089 5.01111 14.2506 4.875 14.1339 4.75833C14.0172 4.64167 13.5722 4.58333 13.4167 4.58333C13.2611 4.58333 12.8103 4.64167 12.6937 4.75833C12.577 4.875 12.5187 5.01111 12.5187 5.16667V7.5H5.83333V10.0667C6.88333 10.4556 7.72917 11.1069 8.37083 12.0208C9.0125 12.9347 9.33333 13.9556 9.33333 15.0833C9.33333 16.1917 9.0125 17.2028 8.37083 18.1167C7.72917 19.0306 6.88333 19.6917 5.83333 20.1V22.6667Z" fill="white"/>
</g>
</g>
</svg>
