<svg width="26" height="26" viewBox="0 0 26 26" fill="none" xmlns="http://www.w3.org/2000/svg">
<g id="face id">
<path id="Vector" d="M9.9375 3.302C9.9375 4.11867 9.22291 4.83325 8.40625 4.83325C7.89583 4.83325 6.97708 4.83325 6.67083 4.83325C6.46666 4.83325 6.36458 4.83325 6.2625 4.83325C6.16041 4.83325 6.16041 4.83325 6.16041 4.83325C5.54791 5.03742 5.13958 5.44575 4.93541 6.05825V6.16034V6.56867C4.83333 6.977 4.83333 7.89575 4.83333 8.40617C4.83333 9.22284 4.11875 9.93742 3.30208 9.93742C2.48541 9.93742 1.77083 9.22284 1.77083 8.40617C1.77083 7.89575 1.77083 6.87492 1.77083 6.56867C1.77083 6.16034 1.77083 5.752 1.87291 5.34367C2.28124 3.71034 3.60833 2.38325 5.24166 1.97492C5.65 1.87284 6.16041 1.77075 6.56874 1.77075H8.40625C9.22291 1.77075 9.9375 2.48534 9.9375 3.302ZM17.5937 4.83325H19.3292H19.7375H19.8396C20.4521 5.03742 20.8604 5.44575 21.0646 6.05825V6.16034V6.56867V8.30409C21.1667 9.22284 21.8812 9.93742 22.6979 9.93742C23.5146 9.93742 24.2292 9.22284 24.2292 8.40617C24.2292 7.89575 24.2292 6.87492 24.2292 6.56867C24.2292 6.16034 24.2292 5.752 24.1271 5.34367C23.7187 3.71034 22.3917 2.38325 20.7583 1.97492C20.35 1.87284 19.8396 1.77075 19.4312 1.77075C19.125 1.77075 18.1042 1.77075 17.5937 1.77075C16.7771 1.77075 16.0625 2.48534 16.0625 3.302C16.0625 4.11867 16.7771 4.83325 17.5937 4.83325ZM4.83333 17.5937C4.83333 16.777 4.11875 16.0624 3.30208 16.0624C2.48541 16.0624 1.77083 16.777 1.77083 17.5937V19.4312C1.77083 19.8395 1.77083 20.2478 1.87291 20.6562C2.28124 22.2895 3.60833 23.6166 5.24166 24.0249C5.65 24.127 6.16041 24.2291 6.56874 24.2291H8.40625C9.22291 24.2291 9.9375 23.5145 9.9375 22.6978C9.9375 21.8812 9.22291 21.1666 8.40625 21.1666C7.89583 21.1666 6.97708 21.1666 6.67083 21.1666C6.46666 21.1666 6.36458 21.1666 6.2625 21.1666C6.16041 21.1666 6.16041 21.1666 6.16041 21.1666C5.54791 20.9624 5.13958 20.5541 4.93541 19.9416C4.93541 19.9416 4.93541 19.9416 4.93541 19.8395C4.93541 19.7374 4.93541 19.6353 4.93541 19.4312C4.83333 19.0228 4.83333 18.1041 4.83333 17.5937ZM24.2292 17.5937C24.2292 16.777 23.5146 16.0624 22.6979 16.0624C21.8812 16.0624 21.1667 16.777 21.1667 17.5937V19.3291V19.7374V19.8395C20.9625 20.452 20.5542 20.8603 19.9417 21.0645C19.9417 21.0645 19.9417 21.0645 19.8396 21.0645C19.7375 21.0645 19.6354 21.0645 19.4312 21.0645C19.125 21.0645 18.2062 21.0645 17.6958 21.0645C16.8792 21.0645 16.1646 21.7791 16.1646 22.5958C16.1646 23.4124 16.8792 24.127 17.6958 24.127H19.5333C19.9417 24.127 20.35 24.127 20.7583 24.0249C22.3917 23.6166 23.7187 22.2895 24.1271 20.6562C24.2292 20.2478 24.2292 19.8395 24.2292 19.4312C24.2292 19.1249 24.2292 18.1041 24.2292 17.5937ZM16.0625 9.93742C16.0625 10.5499 16.4708 10.9583 17.0833 10.9583C17.6958 10.9583 18.1042 10.5499 18.1042 9.93742V8.91659C18.1042 8.30409 17.6958 7.89575 17.0833 7.89575C16.4708 7.89575 16.0625 8.30409 16.0625 8.91659V9.93742ZM7.89583 9.93742C7.89583 10.5499 8.30416 10.9583 8.91666 10.9583C9.52916 10.9583 9.9375 10.5499 9.9375 9.93742V8.91659C9.9375 8.30409 9.52916 7.89575 8.91666 7.89575C8.30416 7.89575 7.89583 8.30409 7.89583 8.91659V9.93742ZM11.9792 12.4895C11.9792 13.7145 13 14.6333 14.1229 14.6333C14.7354 14.6333 15.1437 14.2249 15.1437 13.6124C15.1437 12.9999 14.7354 12.5916 14.1229 12.5916C14.0208 12.5916 14.0208 12.4895 14.0208 12.4895V9.93742C14.0208 9.32492 13.6125 8.91659 13 8.91659C12.3875 8.91659 11.9792 9.32492 11.9792 9.93742V12.4895ZM15.9604 15.2458C15.9604 15.2458 15.8583 15.2458 15.8583 15.3478C15.7562 15.4499 15.5521 15.552 15.3479 15.6541C14.7354 15.8583 14.0208 16.0624 13 16.0624C11.9792 16.0624 11.2646 15.8583 10.7542 15.6541C10.55 15.552 10.3458 15.4499 10.2437 15.3478C10.1417 15.3478 10.1417 15.2458 10.1417 15.2458C9.73333 14.9395 9.01875 14.9395 8.7125 15.4499C8.40625 15.8583 8.40625 16.5728 8.91666 16.8791H9.01875C9.12083 16.8791 9.12083 16.9812 9.22291 16.9812C9.42708 17.0833 9.73333 17.2874 10.0396 17.3895C10.7542 17.6958 11.775 18.002 13.1021 18.002C14.4292 18.002 15.45 17.6958 16.1646 17.3895C16.4708 17.2874 16.7771 17.0833 16.9812 16.9812C17.0833 16.8791 17.1854 16.8791 17.1854 16.8791H17.2875C17.6958 16.5728 17.7979 15.8583 17.4917 15.4499C16.9812 14.9395 16.3687 14.9395 15.9604 15.2458Z" fill="white"/>
</g>
</svg>
