<svg width="28" height="28" viewBox="0 0 28 28" fill="none" xmlns="http://www.w3.org/2000/svg">
<g id="face id">
<path id="Vector" d="M10.5 2.91675C10.5 3.85008 9.68335 4.66675 8.75002 4.66675C8.16669 4.66675 7.11669 4.66675 6.76669 4.66675C6.53335 4.66675 6.41669 4.66675 6.30002 4.66675C6.18335 4.66675 6.18335 4.66675 6.18335 4.66675C5.48335 4.90008 5.01669 5.36675 4.78335 6.06675V6.18342V6.65008C4.66669 7.11675 4.66669 8.16675 4.66669 8.75008C4.66669 9.68342 3.85002 10.5001 2.91669 10.5001C1.98335 10.5001 1.16669 9.68342 1.16669 8.75008C1.16669 8.16675 1.16669 7.00008 1.16669 6.65008C1.16669 6.18341 1.16669 5.71675 1.28335 5.25008C1.75002 3.38341 3.26669 1.86675 5.13335 1.40008C5.60002 1.28341 6.18335 1.16675 6.65002 1.16675H8.75002C9.68335 1.16675 10.5 1.98341 10.5 2.91675ZM19.25 4.66675H21.2334H21.7H21.8167C22.5167 4.90008 22.9834 5.36675 23.2167 6.06675V6.18342V6.65008V8.63342C23.3334 9.68342 24.15 10.5001 25.0834 10.5001C26.0167 10.5001 26.8334 9.68342 26.8334 8.75008C26.8334 8.16675 26.8334 7.00008 26.8334 6.65008C26.8334 6.18341 26.8334 5.71675 26.7167 5.25008C26.25 3.38341 24.7334 1.86675 22.8667 1.40008C22.4 1.28341 21.8167 1.16675 21.35 1.16675C21 1.16675 19.8334 1.16675 19.25 1.16675C18.3167 1.16675 17.5 1.98341 17.5 2.91675C17.5 3.85008 18.3167 4.66675 19.25 4.66675ZM4.66669 19.2501C4.66669 18.3167 3.85002 17.5001 2.91669 17.5001C1.98335 17.5001 1.16669 18.3167 1.16669 19.2501V21.3501C1.16669 21.8167 1.16669 22.2834 1.28335 22.7501C1.75002 24.6167 3.26669 26.1334 5.13335 26.6001C5.60002 26.7167 6.18335 26.8334 6.65002 26.8334H8.75002C9.68335 26.8334 10.5 26.0168 10.5 25.0834C10.5 24.1501 9.68335 23.3334 8.75002 23.3334C8.16669 23.3334 7.11669 23.3334 6.76669 23.3334C6.53335 23.3334 6.41669 23.3334 6.30002 23.3334C6.18335 23.3334 6.18335 23.3334 6.18335 23.3334C5.48335 23.1001 5.01669 22.6334 4.78335 21.9334C4.78335 21.9334 4.78335 21.9334 4.78335 21.8167C4.78335 21.7001 4.78335 21.5834 4.78335 21.3501C4.66669 20.8834 4.66669 19.8334 4.66669 19.2501ZM26.8334 19.2501C26.8334 18.3167 26.0167 17.5001 25.0834 17.5001C24.15 17.5001 23.3334 18.3167 23.3334 19.2501V21.2334V21.7001V21.8167C23.1 22.5168 22.6334 22.9834 21.9334 23.2167C21.9334 23.2167 21.9334 23.2167 21.8167 23.2167C21.7 23.2167 21.5834 23.2167 21.35 23.2167C21 23.2167 19.95 23.2167 19.3667 23.2167C18.4334 23.2167 17.6167 24.0334 17.6167 24.9667C17.6167 25.9001 18.4334 26.7167 19.3667 26.7167H21.4667C21.9334 26.7167 22.4 26.7167 22.8667 26.6001C24.7334 26.1334 26.25 24.6167 26.7167 22.7501C26.8334 22.2834 26.8334 21.8167 26.8334 21.3501C26.8334 21.0001 26.8334 19.8334 26.8334 19.2501ZM17.5 10.5001C17.5 11.2001 17.9667 11.6667 18.6667 11.6667C19.3667 11.6667 19.8334 11.2001 19.8334 10.5001V9.33342C19.8334 8.63342 19.3667 8.16675 18.6667 8.16675C17.9667 8.16675 17.5 8.63342 17.5 9.33342V10.5001ZM8.16669 10.5001C8.16669 11.2001 8.63335 11.6667 9.33335 11.6667C10.0334 11.6667 10.5 11.2001 10.5 10.5001V9.33342C10.5 8.63342 10.0334 8.16675 9.33335 8.16675C8.63335 8.16675 8.16669 8.63342 8.16669 9.33342V10.5001ZM12.8334 13.4167C12.8334 14.8167 14 15.8667 15.2834 15.8667C15.9834 15.8667 16.45 15.4001 16.45 14.7001C16.45 14.0001 15.9834 13.5334 15.2834 13.5334C15.1667 13.5334 15.1667 13.4167 15.1667 13.4167V10.5001C15.1667 9.80008 14.7 9.33342 14 9.33342C13.3 9.33342 12.8334 9.80008 12.8334 10.5001V13.4167ZM17.3834 16.5667C17.3834 16.5667 17.2667 16.5667 17.2667 16.6834C17.15 16.8001 16.9167 16.9167 16.6834 17.0334C15.9834 17.2668 15.1667 17.5001 14 17.5001C12.8334 17.5001 12.0167 17.2668 11.4334 17.0334C11.2 16.9167 10.9667 16.8001 10.85 16.6834C10.7334 16.6834 10.7334 16.5667 10.7334 16.5667C10.2667 16.2167 9.45002 16.2167 9.10002 16.8001C8.75002 17.2667 8.75002 18.0834 9.33335 18.4334H9.45002C9.56669 18.4334 9.56669 18.5501 9.68335 18.5501C9.91669 18.6667 10.2667 18.9001 10.6167 19.0167C11.4334 19.3667 12.6 19.7167 14.1167 19.7167C15.6334 19.7167 16.8 19.3667 17.6167 19.0167C17.9667 18.9001 18.3167 18.6667 18.55 18.5501C18.6667 18.4334 18.7834 18.4334 18.7834 18.4334H18.9C19.3667 18.0834 19.4834 17.2667 19.1334 16.8001C18.55 16.2167 17.85 16.2167 17.3834 16.5667Z" fill="#B2B2B2"/>
</g>
</svg>
