<svg width="200" height="50" viewBox="0 0 200 50" fill="none" xmlns="http://www.w3.org/2000/svg">
<path d="M47.9592 20.551H35.9451V15.8668H47.9592C49.1939 15.8668 50.1739 14.8673 50.1739 13.6522C50.1739 12.437 49.1743 11.4375 47.9592 11.4375H35.9451H33.7304C32.4957 11.4375 31.5157 12.437 31.5157 13.6522V15.8668V20.551V24.9803V36.3477C31.5157 37.5824 32.5153 38.5623 33.7304 38.5623C34.9651 38.5623 35.9451 37.5628 35.9451 36.3477V24.9803H47.9592C49.1939 24.9803 50.1739 23.9808 50.1739 22.7656C50.1739 21.5505 49.1743 20.551 47.9592 20.551Z" fill="#B2B2B2"/>
<path d="M71.6173 11.4375H59.6032H57.3885C56.1538 11.4375 55.1738 12.437 55.1738 13.6522V15.8668V36.3477C55.1738 37.5824 56.1734 38.5623 57.3885 38.5623H69.4026H71.6173C72.852 38.5623 73.8319 37.5628 73.8319 36.3477V34.133V13.6522C73.8319 12.437 72.852 11.4375 71.6173 11.4375ZM70.2062 32.5063H65.9532V33.9566C65.9532 34.7602 65.3064 35.4069 64.5029 35.4069C63.6993 35.4069 63.0526 34.7602 63.0526 33.9566V32.5063H58.7996C57.6825 32.5063 56.9769 31.2912 57.5453 30.3308L60.6811 24.9019H60.2499C59.1328 24.9019 58.4272 23.6868 58.9956 22.7264L63.2486 15.3573C63.8169 14.3969 65.2084 14.3969 65.7768 15.3573L70.0298 22.7264C70.5981 23.6868 69.8926 24.9019 68.7754 24.9019H68.3443L71.4801 30.3308C72.0289 31.2912 71.3233 32.5063 70.2062 32.5063Z" fill="#B2B2B2"/>
<path d="M95.2747 27.2144H87.8859C86.6512 27.2144 85.6713 28.2139 85.6713 29.429C85.6713 30.6442 86.6708 31.6437 87.8859 31.6437H93.06V36.3474C93.06 37.5822 94.0596 38.5621 95.2747 38.5621C96.4898 38.5621 97.4894 37.5626 97.4894 36.3474V29.429C97.4894 28.2139 96.5094 27.2144 95.2747 27.2144Z" fill="#B2B2B2"/>
<path d="M95.2755 11.4375H83.2614H81.0467C79.812 11.4375 78.832 12.437 78.832 13.6522V15.8668V20.551V24.9803V36.3477C78.832 37.5824 79.8316 38.5623 81.0467 38.5623C82.2618 38.5623 83.2614 37.5628 83.2614 36.3477V24.9803H95.2755C96.5102 24.9803 97.4901 23.9808 97.4901 22.7656V13.6522C97.4901 12.437 96.5102 11.4375 95.2755 11.4375ZM83.281 15.8864H93.0608V20.5706H83.281V15.8864Z" fill="#B2B2B2"/>
<path d="M106.939 27.2244H118.953C120.188 27.2244 121.168 26.2248 121.168 25.0097C121.168 23.775 120.169 22.795 118.953 22.795H106.939V18.0717V15.8962H118.953C120.188 15.8962 121.168 14.8967 121.168 13.6815C121.168 12.4664 120.169 11.4473 118.934 11.4473H106.92H104.705C103.47 11.4473 102.49 12.4468 102.49 13.6619V15.8766V18.0521V22.7754V27.2048V31.9477V34.1232V36.3378C102.49 37.5726 103.49 38.5525 104.705 38.5525H106.92H118.934C120.169 38.5525 121.148 37.553 121.148 36.3378C121.148 35.1031 120.149 34.1232 118.934 34.1232H106.92V31.9477V27.2244H106.939Z" fill="#B2B2B2"/>
<path d="M142.611 22.795H130.597V18.0717V15.8962H142.611C143.846 15.8962 144.826 14.8967 144.826 13.6815C144.826 12.4664 143.827 11.4473 142.611 11.4473H130.597H128.383C127.148 11.4473 126.168 12.4468 126.168 13.6619V15.8766V18.0521V22.7754V24.9901C126.168 26.2248 127.168 27.2048 128.383 27.2048H130.597H131.303H140.397V34.1232H131.303H130.597H128.383C127.148 34.1232 126.168 35.1227 126.168 36.3378C126.168 37.5726 127.168 38.5525 128.383 38.5525H130.597H142.611C143.846 38.5525 144.826 37.553 144.826 36.3378V24.9705C144.826 23.775 143.827 22.795 142.611 22.795Z" fill="#B2B2B2"/>
<path d="M166.27 11.4375H152.041C150.806 11.4375 149.826 12.437 149.826 13.6522C149.826 14.8869 150.826 15.8668 152.041 15.8668H166.27C167.504 15.8668 168.484 14.8673 168.484 13.6522C168.484 12.437 167.485 11.4375 166.27 11.4375Z" fill="#B2B2B2"/>
<path d="M159.154 17.3564C157.919 17.3564 156.939 18.356 156.939 19.5711V36.3477C156.939 37.5825 157.939 38.5624 159.154 38.5624C160.389 38.5624 161.369 37.5629 161.369 36.3477V19.5711C161.369 18.356 160.369 17.3564 159.154 17.3564Z" fill="#B2B2B2"/>
</svg>
