<svg width="52" height="52" viewBox="0 0 52 52" fill="none" xmlns="http://www.w3.org/2000/svg">
<rect x="2" y="4.5" width="34" height="44" rx="4.1" fill="white"/>
<path d="M19.6374 14.7541C19.5584 14.6699 19.4247 14.6699 19.3457 14.7541L16.5461 17.7368C16.4703 17.8176 16.4746 17.9446 16.5557 18.0201L17.0413 18.4723C17.1217 18.5471 17.2474 18.5431 17.3229 18.4633L18.5903 17.1224C18.7146 16.991 18.9357 17.0789 18.9357 17.2598V24.219C18.9357 24.3294 19.0252 24.419 19.1357 24.419H19.8482C19.9586 24.419 20.0482 24.3294 20.0482 24.219V17.2604C20.0482 17.0795 20.2692 16.9915 20.3935 17.123L21.6605 18.4633C21.736 18.5431 21.8617 18.5471 21.9422 18.4723L22.4277 18.0201C22.5088 17.9446 22.513 17.8176 22.4372 17.7368L19.6374 14.7541Z" fill="#5B8EF4" stroke="#5B8EF4" stroke-width="1.2"/>
<path d="M24.8523 10.8928L14.1474 10.8928C13.2025 10.8928 12.4365 11.6588 12.4365 12.6037L12.4365 19.4473C12.4365 20.3922 13.2025 21.1582 14.1474 21.1582L14.7741 21.1582V20.1925L14.1474 20.1925C13.7365 20.1925 13.4022 19.8582 13.4022 19.4473L13.4022 12.6037C13.4022 12.1928 13.7365 11.8585 14.1474 11.8585L24.8523 11.8585C25.2632 11.8585 25.5975 12.1928 25.5975 12.6037V19.4473C25.5975 19.8582 25.2632 20.1925 24.8523 20.1925H24.3561V21.1582H24.8523C25.7972 21.1582 26.5632 20.3922 26.5632 19.4473V12.6037C26.5632 11.6588 25.7972 10.8928 24.8523 10.8928Z" fill="#5B8EF4" stroke="#5B8EF4" stroke-width="1.2"/>
<rect x="10.0337" y="31.5569" width="18.9326" height="3.4" rx="1" fill="#ABC5FA"/>
<rect x="10.0337" y="38.0569" width="18.9326" height="3.4" rx="1" fill="#ABC5FA"/>
<circle cx="38.72" cy="37.6399" r="12.22" fill="#2DCCFF"/>
<path d="M43.5 34.4199L37.5884 41.4199L34.5 38.2603" stroke="white" stroke-width="3" stroke-linecap="square" stroke-linejoin="round"/>
</svg>
