<svg width="52" height="52" viewBox="0 0 52 52" fill="none" xmlns="http://www.w3.org/2000/svg">
<rect x="2" y="4.5" width="34" height="44" rx="4.1" fill="#5B8EF4"/>
<path d="M19.6379 14.7541C19.5589 14.6699 19.4252 14.6699 19.3462 14.7541L16.5466 17.7368C16.4708 17.8176 16.4751 17.9446 16.5561 18.0201L17.0418 18.4723C17.1222 18.5471 17.2479 18.5431 17.3234 18.4633L18.5908 17.1224C18.7151 16.991 18.9362 17.0789 18.9362 17.2598V24.219C18.9362 24.3294 19.0257 24.419 19.1362 24.419H19.8486C19.9591 24.419 20.0486 24.3294 20.0486 24.219V17.2604C20.0486 17.0795 20.2697 16.9915 20.394 17.123L21.661 18.4633C21.7365 18.5431 21.8622 18.5471 21.9426 18.4723L22.4282 18.0201C22.5093 17.9446 22.5135 17.8176 22.4377 17.7368L19.6379 14.7541Z" fill="white" stroke="white" stroke-width="1.2"/>
<path d="M24.8526 10.8928L14.1477 10.8928C13.2028 10.8928 12.4368 11.6588 12.4368 12.6037L12.4368 19.4473C12.4368 20.3922 13.2028 21.1582 14.1477 21.1582L14.7743 21.1582V20.1925L14.1477 20.1925C13.7368 20.1925 13.4025 19.8582 13.4025 19.4473L13.4025 12.6037C13.4025 12.1928 13.7368 11.8585 14.1477 11.8585L24.8526 11.8585C25.2635 11.8585 25.5978 12.1928 25.5978 12.6037V19.4473C25.5978 19.8582 25.2635 20.1925 24.8526 20.1925H24.3563V21.1582H24.8526C25.7975 21.1582 26.5635 20.3922 26.5635 19.4473V12.6037C26.5635 11.6588 25.7975 10.8928 24.8526 10.8928Z" fill="white" stroke="white" stroke-width="1.2"/>
<rect x="10.0337" y="31.5569" width="18.9326" height="3.4" rx="1" fill="#ABC5FA"/>
<rect x="10.0337" y="38.0569" width="18.9326" height="3.4" rx="1" fill="#ABC5FA"/>
<circle cx="38.72" cy="37.6399" r="12.22" fill="#2DCCFF"/>
<path d="M43.5 34.4199L37.5884 41.4199L34.5 38.2603" stroke="white" stroke-width="3" stroke-linecap="square" stroke-linejoin="round"/>
</svg>
