<svg width="52" height="52" viewBox="0 0 52 52" fill="none" xmlns="http://www.w3.org/2000/svg">
<path fill-rule="evenodd" clip-rule="evenodd" d="M5.57295 18.9554L17.7118 44.9215L48.3151 26.3019L44.5092 18.7794C42.3438 19.3977 39.9858 18.3801 38.9875 16.2786C38.0238 14.2501 38.6432 11.8774 40.3491 10.5566L38.4727 6.84787C37.572 5.06772 35.4078 4.34215 33.6161 5.21971L5.57295 18.9554Z" fill="#2DCCFF"/>
<path d="M27.1196 8.39221L40.1873 34.1785" stroke="#00A7DD" stroke-width="2.83544"/>
<path fill-rule="evenodd" clip-rule="evenodd" d="M6.05063 49.7679C3.81353 49.7679 2 47.9543 2 45.7172V40.4856C4.38544 39.434 6.05063 37.0485 6.05063 34.2742C6.05063 31.4998 4.38544 29.1144 2 28.0628V22.8311C2 20.594 3.81353 18.7805 6.05063 18.7805H45.9494C48.1865 18.7805 50 20.594 50 22.8312V28.0628C47.6146 29.1144 45.9494 31.4998 45.9494 34.2742C45.9494 37.0485 47.6146 39.434 50 40.4856V45.7172C50 47.9543 48.1865 49.7679 45.9494 49.7679H6.05063Z" fill="white"/>
<path d="M23.1611 25.1729V27.7656H21.79V25.1729H23.1611ZM22.9941 39.5254V41.8896H21.623V39.5254H22.9941ZM23.9609 36.6426C23.9609 36.3086 23.8994 36.0244 23.7764 35.79C23.6592 35.5557 23.4658 35.3477 23.1963 35.166C22.9326 34.9844 22.5752 34.8086 22.124 34.6387C21.3623 34.3457 20.6914 34.0352 20.1113 33.707C19.5371 33.373 19.0889 32.96 18.7666 32.4678C18.4443 31.9697 18.2832 31.3398 18.2832 30.5781C18.2832 29.8516 18.4561 29.2217 18.8018 28.6885C19.1475 28.1553 19.625 27.7451 20.2344 27.458C20.8496 27.165 21.5645 27.0186 22.3789 27.0186C23 27.0186 23.5625 27.1123 24.0664 27.2998C24.5703 27.4814 25.0039 27.751 25.3672 28.1084C25.7305 28.46 26.0088 28.8906 26.2021 29.4004C26.3955 29.9102 26.4922 30.4932 26.4922 31.1494H23.9697C23.9697 30.7979 23.9316 30.4873 23.8555 30.2178C23.7793 29.9482 23.668 29.7227 23.5215 29.541C23.3809 29.3594 23.2109 29.2246 23.0117 29.1367C22.8125 29.043 22.5928 28.9961 22.3525 28.9961C21.9951 28.9961 21.7021 29.0664 21.4736 29.207C21.2451 29.3477 21.0781 29.5381 20.9727 29.7783C20.873 30.0127 20.8232 30.2822 20.8232 30.5869C20.8232 30.8857 20.876 31.1465 20.9814 31.3691C21.0928 31.5918 21.2832 31.7969 21.5527 31.9844C21.8223 32.166 22.1914 32.3535 22.6602 32.5469C23.4219 32.8398 24.0898 33.1562 24.6641 33.4961C25.2383 33.8359 25.6865 34.252 26.0088 34.7441C26.3311 35.2363 26.4922 35.8633 26.4922 36.625C26.4922 37.3809 26.3164 38.0254 25.9648 38.5586C25.6133 39.0859 25.1211 39.4902 24.4883 39.7715C23.8555 40.0469 23.123 40.1846 22.291 40.1846C21.752 40.1846 21.2158 40.1143 20.6826 39.9736C20.1494 39.8271 19.666 39.5928 19.2324 39.2705C18.7988 38.9482 18.4531 38.5205 18.1953 37.9873C17.9375 37.4482 17.8086 36.7861 17.8086 36.001H20.3398C20.3398 36.4287 20.3955 36.7861 20.5068 37.0732C20.6182 37.3545 20.7646 37.5801 20.9463 37.75C21.1338 37.9141 21.3447 38.0312 21.5791 38.1016C21.8135 38.1719 22.0508 38.207 22.291 38.207C22.666 38.207 22.9736 38.1396 23.2139 38.0049C23.46 37.8701 23.6445 37.6855 23.7676 37.4512C23.8965 37.2109 23.9609 36.9414 23.9609 36.6426ZM39.2852 32.4766V34.6914C39.2852 35.6523 39.1827 36.4814 38.9776 37.1787C38.7725 37.8701 38.4766 38.4385 38.0899 38.8838C37.7091 39.3232 37.255 39.6484 36.7276 39.8594C36.2003 40.0703 35.6143 40.1758 34.9698 40.1758C34.4542 40.1758 33.9737 40.1113 33.5284 39.9824C33.0831 39.8477 32.6817 39.6396 32.3243 39.3584C31.9727 39.0771 31.668 38.7227 31.4102 38.2949C31.1583 37.8613 30.9649 37.3457 30.8302 36.748C30.6954 36.1504 30.628 35.4648 30.628 34.6914V32.4766C30.628 31.5156 30.7305 30.6924 30.9356 30.0068C31.1466 29.3154 31.4425 28.75 31.8233 28.3105C32.21 27.8711 32.6671 27.5488 33.1944 27.3438C33.7218 27.1328 34.3077 27.0273 34.9522 27.0273C35.4678 27.0273 35.9454 27.0947 36.3848 27.2295C36.8302 27.3584 37.2315 27.5605 37.5889 27.8359C37.9464 28.1113 38.2511 28.4658 38.503 28.8994C38.755 29.3271 38.9483 29.8398 39.0831 30.4375C39.2178 31.0293 39.2852 31.709 39.2852 32.4766ZM36.7452 35.0254V32.1338C36.7452 31.6709 36.7188 31.2666 36.6661 30.9209C36.6192 30.5752 36.546 30.2822 36.4464 30.042C36.3468 29.7959 36.2237 29.5967 36.0772 29.4443C35.9307 29.292 35.7637 29.1807 35.5762 29.1104C35.3887 29.04 35.1807 29.0049 34.9522 29.0049C34.6651 29.0049 34.4102 29.0605 34.1876 29.1719C33.9708 29.2832 33.7862 29.4619 33.6339 29.708C33.4815 29.9482 33.3643 30.2705 33.2823 30.6748C33.2061 31.0732 33.168 31.5596 33.168 32.1338V35.0254C33.168 35.4883 33.1915 35.8955 33.2384 36.2471C33.2911 36.5986 33.3673 36.9004 33.4669 37.1523C33.5723 37.3984 33.6954 37.6006 33.836 37.7588C33.9825 37.9111 34.1495 38.0225 34.337 38.0928C34.5303 38.1631 34.7413 38.1982 34.9698 38.1982C35.2511 38.1982 35.5001 38.1426 35.7169 38.0312C35.9395 37.9141 36.127 37.7324 36.2794 37.4863C36.4376 37.2344 36.5548 36.9062 36.6309 36.502C36.7071 36.0977 36.7452 35.6055 36.7452 35.0254Z" fill="#5B8EF4"/>
<path fill-rule="evenodd" clip-rule="evenodd" d="M12.5127 18.7805H11.0127V22.021C11.0127 22.2447 11.194 22.4261 11.4178 22.4261H12.1076C12.3313 22.4261 12.5127 22.2447 12.5127 22.021V18.7805ZM11.4178 23.9456C11.194 23.9456 11.0127 24.1269 11.0127 24.3506V27.5911C11.0127 27.8148 11.194 27.9962 11.4178 27.9962H12.1076C12.3313 27.9962 12.5127 27.8148 12.5127 27.5911V24.3506C12.5127 24.1269 12.3313 23.9456 12.1076 23.9456H11.4178ZM11.0127 29.9198C11.0127 29.696 11.194 29.5147 11.4178 29.5147H12.1076C12.3313 29.5147 12.5127 29.696 12.5127 29.9198V33.1603C12.5127 33.384 12.3313 33.5653 12.1076 33.5653H11.4178C11.194 33.5653 11.0127 33.384 11.0127 33.1603V29.9198ZM11.4178 35.0843C11.194 35.0843 11.0127 35.2657 11.0127 35.4894V38.7299C11.0127 38.9536 11.194 39.1349 11.4178 39.1349H12.1076C12.3313 39.1349 12.5127 38.9536 12.5127 38.7299V35.4894C12.5127 35.2657 12.3313 35.0843 12.1076 35.0843H11.4178ZM11.0127 41.0586C11.0127 40.8349 11.194 40.6536 11.4178 40.6536H12.1076C12.3313 40.6536 12.5127 40.8349 12.5127 41.0586V44.2991C12.5127 44.5228 12.3313 44.7042 12.1076 44.7042H11.4178C11.194 44.7042 11.0127 44.5228 11.0127 44.2991V41.0586ZM11.4178 46.2239C11.194 46.2239 11.0127 46.4052 11.0127 46.6289V49.7682H12.5127V46.6289C12.5127 46.4052 12.3313 46.2239 12.1076 46.2239H11.4178Z" fill="#ABC5FA"/>
</svg>
