<svg width="28" height="29" viewBox="0 0 28 29" fill="none" xmlns="http://www.w3.org/2000/svg">
<g id="hub">
<mask id="mask0_16224_32190" style="mask-type:alpha" maskUnits="userSpaceOnUse" x="0" y="0" width="28" height="29">
<rect id="Bounding box" y="0.5" width="28" height="28" fill="#D9D9D9"/>
</mask>
<g mask="url(#mask0_16224_32190)">
<path id="hub_2" d="M7 27.3333C6.02778 27.3333 5.20139 26.9931 4.52083 26.3125C3.84028 25.6319 3.5 24.8056 3.5 23.8333C3.5 22.8611 3.84028 22.0347 4.52083 21.3542C5.20139 20.6736 6.02778 20.3333 7 20.3333C7.27222 20.3333 7.525 20.3625 7.75833 20.4208C7.99167 20.4792 8.21528 20.5569 8.42917 20.6542L10.0917 18.5833C9.54722 17.9806 9.16806 17.3 8.95417 16.5417C8.74028 15.7833 8.69167 15.025 8.80833 14.2667L6.44583 13.4792C6.11528 13.9653 5.69722 14.3542 5.19167 14.6458C4.68611 14.9375 4.12222 15.0833 3.5 15.0833C2.52778 15.0833 1.70139 14.7431 1.02083 14.0625C0.340278 13.3819 0 12.5556 0 11.5833C0 10.6111 0.340278 9.78472 1.02083 9.10417C1.70139 8.42361 2.52778 8.08333 3.5 8.08333C4.47222 8.08333 5.29861 8.42361 5.97917 9.10417C6.65972 9.78472 7 10.6111 7 11.5833V11.8167L9.3625 12.6333C9.75139 11.9333 10.2715 11.3403 10.9229 10.8542C11.5743 10.3681 12.3083 10.0569 13.125 9.92083V7.38333C12.3667 7.16945 11.7396 6.75625 11.2437 6.14375C10.7479 5.53125 10.5 4.81667 10.5 4C10.5 3.02778 10.8403 2.20139 11.5208 1.52083C12.2014 0.840278 13.0278 0.5 14 0.5C14.9722 0.5 15.7986 0.840278 16.4792 1.52083C17.1597 2.20139 17.5 3.02778 17.5 4C17.5 4.81667 17.2472 5.53125 16.7417 6.14375C16.2361 6.75625 15.6139 7.16945 14.875 7.38333V9.92083C15.6917 10.0569 16.4257 10.3681 17.0771 10.8542C17.7285 11.3403 18.2486 11.9333 18.6375 12.6333L21 11.8167V11.5833C21 10.6111 21.3403 9.78472 22.0208 9.10417C22.7014 8.42361 23.5278 8.08333 24.5 8.08333C25.4722 8.08333 26.2986 8.42361 26.9792 9.10417C27.6597 9.78472 28 10.6111 28 11.5833C28 12.5556 27.6597 13.3819 26.9792 14.0625C26.2986 14.7431 25.4722 15.0833 24.5 15.0833C23.8778 15.0833 23.309 14.9375 22.7937 14.6458C22.2785 14.3542 21.8653 13.9653 21.5542 13.4792L19.1917 14.2667C19.3083 15.025 19.2597 15.7785 19.0458 16.5271C18.8319 17.2757 18.4528 17.9611 17.9083 18.5833L19.5708 20.625C19.7847 20.5278 20.0083 20.4549 20.2417 20.4063C20.475 20.3576 20.7278 20.3333 21 20.3333C21.9722 20.3333 22.7986 20.6736 23.4792 21.3542C24.1597 22.0347 24.5 22.8611 24.5 23.8333C24.5 24.8056 24.1597 25.6319 23.4792 26.3125C22.7986 26.9931 21.9722 27.3333 21 27.3333C20.0278 27.3333 19.2014 26.9931 18.5208 26.3125C17.8403 25.6319 17.5 24.8056 17.5 23.8333C17.5 23.4444 17.5632 23.0701 17.6896 22.7104C17.816 22.3507 17.9861 22.025 18.2 21.7333L16.5375 19.6625C15.7403 20.1097 14.8896 20.3333 13.9854 20.3333C13.0813 20.3333 12.2306 20.1097 11.4333 19.6625L9.8 21.7333C10.0139 22.025 10.184 22.3507 10.3104 22.7104C10.4368 23.0701 10.5 23.4444 10.5 23.8333C10.5 24.8056 10.1597 25.6319 9.47917 26.3125C8.79861 26.9931 7.97222 27.3333 7 27.3333ZM3.5 12.75C3.83056 12.75 4.10764 12.6382 4.33125 12.4146C4.55486 12.191 4.66667 11.9139 4.66667 11.5833C4.66667 11.2528 4.55486 10.9757 4.33125 10.7521C4.10764 10.5285 3.83056 10.4167 3.5 10.4167C3.16944 10.4167 2.89236 10.5285 2.66875 10.7521C2.44514 10.9757 2.33333 11.2528 2.33333 11.5833C2.33333 11.9139 2.44514 12.191 2.66875 12.4146C2.89236 12.6382 3.16944 12.75 3.5 12.75ZM7 25C7.33056 25 7.60764 24.8882 7.83125 24.6646C8.05486 24.441 8.16667 24.1639 8.16667 23.8333C8.16667 23.5028 8.05486 23.2257 7.83125 23.0021C7.60764 22.7785 7.33056 22.6667 7 22.6667C6.66944 22.6667 6.39236 22.7785 6.16875 23.0021C5.94514 23.2257 5.83333 23.5028 5.83333 23.8333C5.83333 24.1639 5.94514 24.441 6.16875 24.6646C6.39236 24.8882 6.66944 25 7 25ZM14 5.16667C14.3306 5.16667 14.6076 5.05486 14.8313 4.83125C15.0549 4.60764 15.1667 4.33056 15.1667 4C15.1667 3.66944 15.0549 3.39236 14.8313 3.16875C14.6076 2.94514 14.3306 2.83333 14 2.83333C13.6694 2.83333 13.3924 2.94514 13.1687 3.16875C12.9451 3.39236 12.8333 3.66944 12.8333 4C12.8333 4.33056 12.9451 4.60764 13.1687 4.83125C13.3924 5.05486 13.6694 5.16667 14 5.16667ZM14 18C14.8167 18 15.5069 17.7181 16.0708 17.1542C16.6347 16.5903 16.9167 15.9 16.9167 15.0833C16.9167 14.2667 16.6347 13.5764 16.0708 13.0125C15.5069 12.4486 14.8167 12.1667 14 12.1667C13.1833 12.1667 12.4931 12.4486 11.9292 13.0125C11.3653 13.5764 11.0833 14.2667 11.0833 15.0833C11.0833 15.9 11.3653 16.5903 11.9292 17.1542C12.4931 17.7181 13.1833 18 14 18ZM21 25C21.3306 25 21.6076 24.8882 21.8312 24.6646C22.0549 24.441 22.1667 24.1639 22.1667 23.8333C22.1667 23.5028 22.0549 23.2257 21.8312 23.0021C21.6076 22.7785 21.3306 22.6667 21 22.6667C20.6694 22.6667 20.3924 22.7785 20.1687 23.0021C19.9451 23.2257 19.8333 23.5028 19.8333 23.8333C19.8333 24.1639 19.9451 24.441 20.1687 24.6646C20.3924 24.8882 20.6694 25 21 25ZM24.5 12.75C24.8306 12.75 25.1076 12.6382 25.3312 12.4146C25.5549 12.191 25.6667 11.9139 25.6667 11.5833C25.6667 11.2528 25.5549 10.9757 25.3312 10.7521C25.1076 10.5285 24.8306 10.4167 24.5 10.4167C24.1694 10.4167 23.8924 10.5285 23.6687 10.7521C23.4451 10.9757 23.3333 11.2528 23.3333 11.5833C23.3333 11.9139 23.4451 12.191 23.6687 12.4146C23.8924 12.6382 24.1694 12.75 24.5 12.75Z" fill="white"/>
</g>
</g>
</svg>
