<svg width="32" height="32" viewBox="0 0 32 32" fill="none" xmlns="http://www.w3.org/2000/svg">
<g id="key_vertical">
<mask id="mask0_16018_10878" style="mask-type:alpha" maskUnits="userSpaceOnUse" x="0" y="0" width="32" height="32">
<rect id="Bounding box" width="32" height="32" fill="#D9D9D9"/>
</mask>
<g mask="url(#mask0_16018_10878)">
<path id="key_vertical_2" d="M14 9.33325C14 8.59992 14.2611 7.97214 14.7834 7.44992C15.3056 6.9277 15.9334 6.66658 16.6667 6.66658C17.4 6.66658 18.0278 6.9277 18.55 7.44992C19.0722 7.97214 19.3334 8.59992 19.3334 9.33325C19.3334 10.0666 19.0722 10.6944 18.55 11.2166C18.0278 11.7388 17.4 11.9999 16.6667 11.9999C15.9334 11.9999 15.3056 11.7388 14.7834 11.2166C14.2611 10.6944 14 10.0666 14 9.33325ZM8.66669 9.33325C8.66669 7.11103 9.44446 5.22214 11 3.66659C12.5556 2.11103 14.4445 1.33325 16.6667 1.33325C18.8889 1.33325 20.7778 2.11103 22.3334 3.66659C23.8889 5.22214 24.6667 7.11103 24.6667 9.33325C24.6667 10.8221 24.3 12.1721 23.5667 13.3833C22.8334 14.5944 21.8667 15.5555 20.6667 16.2666V27.4333C20.6667 27.611 20.6334 27.7833 20.5667 27.9499C20.5 28.1166 20.4 28.2666 20.2667 28.3999L17.6 31.0666C17.4667 31.1999 17.3222 31.2944 17.1667 31.3499C17.0111 31.4055 16.8445 31.4333 16.6667 31.4333C16.4889 31.4333 16.3222 31.4055 16.1667 31.3499C16.0111 31.2944 15.8667 31.1999 15.7334 31.0666L11.5 26.8333C11.3889 26.7221 11.3 26.5888 11.2334 26.4333C11.1667 26.2777 11.1222 26.1221 11.1 25.9666C11.0778 25.811 11.0889 25.6555 11.1334 25.4999C11.1778 25.3444 11.2556 25.1999 11.3667 25.0666L12.6667 23.3333L11.2334 21.4333C11.1445 21.3221 11.0778 21.1999 11.0334 21.0666C10.9889 20.9333 10.9667 20.7999 10.9667 20.6666C10.9667 20.5333 10.9889 20.3944 11.0334 20.2499C11.0778 20.1055 11.1445 19.9777 11.2334 19.8666L12.6667 17.8333V16.2666C11.4667 15.5555 10.5 14.5944 9.76669 13.3833C9.03335 12.1721 8.66669 10.8221 8.66669 9.33325ZM11.3334 9.33325C11.3334 10.5777 11.7111 11.6721 12.4667 12.6166C13.2222 13.561 14.1778 14.1888 15.3334 14.4999V18.6666L13.9667 20.5999L16 23.3333L14.1667 25.6999L16.6667 28.1999L18 26.8666V14.4999C19.1556 14.1888 20.1111 13.561 20.8667 12.6166C21.6222 11.6721 22 10.5777 22 9.33325C22 7.86658 21.4778 6.61103 20.4334 5.56659C19.3889 4.52214 18.1334 3.99992 16.6667 3.99992C15.2 3.99992 13.9445 4.52214 12.9 5.56659C11.8556 6.61103 11.3334 7.86658 11.3334 9.33325Z" fill="#B2B2B2"/>
</g>
</g>
</svg>
