<svg width="28" height="29" viewBox="0 0 28 29" fill="none" xmlns="http://www.w3.org/2000/svg">
<g id="offline_bolt">
<mask id="mask0_16224_32207" style="mask-type:alpha" maskUnits="userSpaceOnUse" x="0" y="0" width="28" height="29">
<rect id="Bounding box" y="0.5" width="28" height="28" fill="#D9D9D9"/>
</mask>
<g mask="url(#mask0_16224_32207)">
<path id="offline_bolt_2" d="M13.3 22.6668L18.375 12.7502H14.875V6.3335L9.625 16.2502H13.3V22.6668ZM14 26.1668C12.3861 26.1668 10.8694 25.8606 9.45 25.2481C8.03055 24.6356 6.79583 23.8043 5.74583 22.7543C4.69583 21.7043 3.86458 20.4696 3.25208 19.0502C2.63958 17.6307 2.33333 16.1141 2.33333 14.5002C2.33333 12.8863 2.63958 11.3696 3.25208 9.95016C3.86458 8.53072 4.69583 7.296 5.74583 6.246C6.79583 5.196 8.03055 4.36475 9.45 3.75225C10.8694 3.13975 12.3861 2.8335 14 2.8335C15.6139 2.8335 17.1306 3.13975 18.55 3.75225C19.9694 4.36475 21.2042 5.196 22.2542 6.246C23.3042 7.296 24.1354 8.53072 24.7479 9.95016C25.3604 11.3696 25.6667 12.8863 25.6667 14.5002C25.6667 16.1141 25.3604 17.6307 24.7479 19.0502C24.1354 20.4696 23.3042 21.7043 22.2542 22.7543C21.2042 23.8043 19.9694 24.6356 18.55 25.2481C17.1306 25.8606 15.6139 26.1668 14 26.1668ZM14 23.8335C16.6056 23.8335 18.8125 22.9293 20.6208 21.121C22.4292 19.3127 23.3333 17.1057 23.3333 14.5002C23.3333 11.8946 22.4292 9.68766 20.6208 7.87933C18.8125 6.071 16.6056 5.16683 14 5.16683C11.3944 5.16683 9.1875 6.071 7.37916 7.87933C5.57083 9.68766 4.66666 11.8946 4.66666 14.5002C4.66666 17.1057 5.57083 19.3127 7.37916 21.121C9.1875 22.9293 11.3944 23.8335 14 23.8335Z" fill="white"/>
</g>
</g>
</svg>
