<svg width="156" height="36" viewBox="0 0 156 36" fill="none" xmlns="http://www.w3.org/2000/svg">
<g id="Vector">
<path fill-rule="evenodd" clip-rule="evenodd" d="M16.0253 6.54806C11.2415 8.66093 8.23294 13.8284 9.98446 18.9637C11.0436 22.0691 13.178 24.282 16.3433 25.413C21.8782 27.3912 27.6563 23.0417 27.0083 17.3879C26.733 14.9849 25.5211 13.1552 23.0597 12.3981C21.2287 11.8348 19.4764 12.098 18.0466 13.4376C16.8331 14.5733 16.373 15.9721 16.8591 17.5979C17.1273 18.492 17.7715 19.0483 18.648 19.3138C19.4175 19.5461 20.0129 19.2099 20.4714 18.5667C20.3789 18.4112 20.2979 18.2412 20.1856 18.095C19.5872 17.3163 20.0725 16.1837 20.5898 15.712C21.2929 15.0711 22.4315 15.0126 23.1797 15.5435C24.3932 16.403 24.9449 18.689 24.2854 20.1232C23.182 22.5223 20.3445 23.9188 17.7409 23.2394C13.6304 22.1668 11.6038 18.0804 12.9304 14.1301C14.6934 8.881 20.6188 6.58499 25.6685 9.10258C29.7509 11.137 31.2664 14.6895 31.1036 18.9183C30.837 25.881 23.859 31.0462 16.8621 29.7034C10.0761 28.4017 5.03711 21.859 5.39858 15.672C5.53156 13.3876 6.03669 11.2485 7.19749 9.28571C10.2175 4.18127 14.9219 1.7791 20.8061 1.39052C22.3551 1.2882 23.9171 1.37514 25.3928 1.3759C25.3118 1.33976 25.1268 1.24817 24.9342 1.17585C22.0609 0.0925002 19.0913 -0.252992 16.0483 0.184048C14.1615 0.417976 12.4199 0.931192 10.8365 1.66523C10.8075 1.66984 10.7731 1.67985 10.7311 1.69752C10.0188 2.00298 9.89962 1.30127 9.64668 1.08891C9.40062 0.8827 9.4327 1.13891 9.4327 1.13891C9.64747 2.16765 9.10947 2.58237 9.03686 2.63316C8.58829 2.91249 8.15807 3.2141 7.74233 3.53111C7.73011 3.53648 7.72093 3.53648 7.70796 3.54263C6.72598 3.99353 6.31791 3.23177 5.86626 3.00018C5.38866 2.75549 5.56902 3.15714 5.56902 3.15714C6.16049 4.34054 5.64998 5.35311 5.55446 5.52393C5.13572 5.97868 4.74367 6.45651 4.37686 6.95277C4.33865 6.97739 4.30123 7.00047 4.25764 7.03971C3.29326 7.91764 2.54283 7.22284 1.94676 7.09205C1.28955 6.94892 1.66171 7.38214 1.66171 7.38214C2.87752 8.63555 2.49315 10.1429 2.49315 10.1429C0.931165 13.5415 0.373311 17.4764 1.0221 21.4251C3.15495 34.4047 19.011 40.5348 29.4047 32.1734C32.78 29.4579 35.1216 24.2274 35.3685 19.9001C35.5442 16.827 34.6004 14.0377 32.8603 11.5125C29.1685 6.15411 21.7896 4.00199 16.0253 6.54806Z" fill="#B2B2B2"/>
<path d="M48.2881 23.119V20.03H53.0159C54.6426 20.03 55.8525 19.714 56.6456 19.0819C57.459 18.4295 57.8657 17.359 57.8657 15.8706C57.8657 14.5453 57.4895 13.5462 56.7371 12.8733C55.9847 12.2005 54.8256 11.8641 53.2599 11.8641H48.2881V8.80566H53.3514C54.6528 8.80566 55.822 8.95858 56.8591 9.26442C57.8962 9.57026 58.7807 10.0188 59.5128 10.6101C60.2448 11.2014 60.804 11.9558 61.1904 12.8733C61.5767 13.7705 61.7699 14.8103 61.7699 15.9929C61.7699 17.5425 61.4141 18.8474 60.7023 19.9077C60.011 20.9679 58.9739 21.7733 57.5912 22.3238C56.2287 22.8539 54.5308 23.119 52.4973 23.119H48.2881ZM45.7564 28.9912V8.80566H49.5996V28.9912H45.7564Z" fill="#B2B2B2"/>
<path d="M71.0556 29.3887C69.4898 29.3887 68.1071 29.0727 66.9073 28.4406C65.7076 27.7882 64.762 26.8401 64.0706 25.5963C63.3996 24.3322 63.0641 22.7826 63.0641 20.9475C63.0641 19.0717 63.4098 17.5221 64.1011 16.2988C64.8129 15.055 65.7686 14.1273 66.9683 13.5156C68.1681 12.9039 69.5203 12.5981 71.0251 12.5981C72.5909 12.5981 73.9736 12.9141 75.1733 13.5462C76.3731 14.1783 77.3187 15.1264 78.01 16.3905C78.7014 17.6343 79.0471 19.1839 79.0471 21.0393C79.0471 22.9151 78.7014 24.4749 78.01 25.7187C77.3187 26.9624 76.3629 27.8901 75.1428 28.5018C73.9431 29.0931 72.5807 29.3887 71.0556 29.3887ZM71.2081 26.4527C72.0622 26.4527 72.784 26.259 73.3737 25.8716C73.9634 25.4638 74.4108 24.8623 74.7158 24.0671C75.0412 23.2719 75.2039 22.3238 75.2039 21.2228C75.2039 20.0606 75.031 19.0717 74.6853 18.2561C74.36 17.4202 73.8821 16.7779 73.2517 16.3293C72.6417 15.8808 71.869 15.6565 70.9336 15.6565C70.1202 15.6565 69.4085 15.8604 68.7984 16.2682C68.1884 16.6556 67.7207 17.2367 67.3954 18.0115C67.0903 18.7863 66.9378 19.7446 66.9378 20.8864C66.9378 22.6806 67.314 24.0569 68.0664 25.0152C68.8391 25.9735 69.8863 26.4527 71.2081 26.4527Z" fill="#B2B2B2"/>
<path d="M81.5852 28.9912V12.9957H84.8184L84.7574 18.5008H85.3065C85.4895 17.1959 85.7741 16.1153 86.1605 15.2589C86.5469 14.3822 87.0857 13.7297 87.7771 13.3015C88.4685 12.853 89.3225 12.6287 90.3393 12.6287C90.5426 12.6287 90.7561 12.6389 90.9798 12.6593C91.2238 12.6796 91.4882 12.7306 91.7729 12.8122L91.6203 16.8799C91.295 16.7575 90.9595 16.676 90.6138 16.6352C90.2884 16.574 89.9834 16.5434 89.6987 16.5434C88.9057 16.5434 88.2143 16.7473 87.6246 17.1551C87.0552 17.5629 86.5875 18.144 86.2215 18.8984C85.8758 19.6324 85.6115 20.5092 85.4285 21.5286V28.9912H81.5852Z" fill="#B2B2B2"/>
<path d="M101.326 29.3582C99.6381 29.3582 98.3976 28.9096 97.6046 28.0125C96.8115 27.0949 96.415 25.6779 96.415 23.7613V16.0847H94.0664L94.1274 13.0263H95.683C96.2727 13.0263 96.7099 12.9345 96.9946 12.751C97.2792 12.5675 97.4521 12.2413 97.5131 11.7723L97.8791 9.44793H100.106V12.9957H104.315V16.207H100.106V23.6084C100.106 24.3628 100.279 24.9133 100.624 25.2599C100.99 25.6065 101.529 25.7798 102.241 25.7798C102.627 25.7798 103.003 25.739 103.369 25.6575C103.756 25.5555 104.112 25.3924 104.437 25.1681V28.8382C103.807 29.0421 103.227 29.1747 102.698 29.2358C102.19 29.3174 101.733 29.3582 101.326 29.3582Z" fill="#B2B2B2"/>
<path d="M107.282 28.9912V7.24588H111.064V19.4489C111.755 19.0207 112.416 18.5518 113.046 18.0421C113.677 17.5119 114.256 16.9614 114.785 16.3905C115.314 15.8196 115.781 15.2487 116.188 14.6778C116.595 14.0865 116.93 13.5258 117.195 12.9957H121.617C121.292 13.7909 120.865 14.5759 120.336 15.3507C119.808 16.1255 119.187 16.8391 118.476 17.4915C117.784 18.144 117.001 18.7149 116.127 19.2042C115.253 19.6732 114.317 19.9994 113.321 20.1829V20.6111C114.582 20.4276 115.639 20.4888 116.493 20.7946C117.347 21.1005 118.069 21.5592 118.659 22.1709C119.248 22.7826 119.736 23.4962 120.123 24.3118C120.53 25.107 120.906 25.9225 121.251 26.7585L122.044 28.9912H117.805L117.317 27.5231C116.93 26.5036 116.524 25.6065 116.097 24.8317C115.69 24.0365 115.171 23.4248 114.541 22.9967C113.931 22.5481 113.138 22.3238 112.162 22.3238H111.064V28.9912H107.282Z" fill="#B2B2B2"/>
<path d="M131.287 29.3887C130.006 29.3887 128.857 29.2052 127.84 28.8382C126.844 28.4712 126 27.9411 125.308 27.2479C124.617 26.5342 124.088 25.6779 123.722 24.6788C123.356 23.6797 123.173 22.5481 123.173 21.284C123.173 20.0198 123.346 18.8576 123.692 17.7974C124.058 16.7371 124.576 15.8196 125.247 15.0448C125.919 14.27 126.732 13.6685 127.688 13.2404C128.664 12.8122 129.772 12.5981 131.012 12.5981C132.171 12.5981 133.208 12.7918 134.124 13.1792C135.039 13.5666 135.811 14.1477 136.442 14.9225C137.072 15.6769 137.54 16.625 137.845 17.7668C138.15 18.8882 138.251 20.1931 138.15 21.6816L125.675 21.7733V19.5407L135.923 19.4489L134.581 20.7029C134.703 19.5407 134.612 18.5926 134.307 17.8585C134.002 17.1041 133.564 16.5536 132.995 16.207C132.426 15.84 131.775 15.6565 131.043 15.6565C130.209 15.6565 129.477 15.8808 128.847 16.3293C128.216 16.7575 127.728 17.3896 127.383 18.2256C127.057 19.0411 126.895 20.0402 126.895 21.2228C126.895 22.9967 127.281 24.322 128.054 25.1987C128.847 26.0755 129.924 26.5138 131.287 26.5138C131.897 26.5138 132.405 26.4425 132.812 26.2998C133.239 26.1366 133.595 25.9327 133.88 25.6881C134.164 25.423 134.388 25.1274 134.551 24.8011C134.734 24.4749 134.876 24.1283 134.978 23.7613L138.333 24.5259C138.17 25.2803 137.906 25.9531 137.54 26.5444C137.174 27.1357 136.696 27.6455 136.106 28.0736C135.537 28.5018 134.856 28.828 134.063 29.0523C133.269 29.2766 132.344 29.3887 131.287 29.3887Z" fill="#B2B2B2"/>
<path d="M147.221 34.4657C146.408 34.4657 145.585 34.3841 144.751 34.221C143.917 34.0579 143.134 33.803 142.402 33.4564C141.69 33.1302 141.091 32.702 140.603 32.1719L141.914 28.9912C142.504 29.664 143.266 30.1737 144.202 30.5204C145.137 30.867 146.083 31.0403 147.038 31.0403C148.157 31.0403 149.082 30.8058 149.814 30.3368C150.546 29.8883 151.105 29.1848 151.492 28.2265C151.878 27.2682 152.092 26.0755 152.132 24.6482L152.346 21.7427H151.705C151.502 23.1292 151.166 24.2608 150.699 25.1376C150.231 25.9939 149.641 26.626 148.93 27.0338C148.238 27.4212 147.425 27.6149 146.489 27.6149C145.33 27.6149 144.354 27.3192 143.561 26.7279C142.768 26.1366 142.168 25.2599 141.762 24.0977C141.375 22.9355 141.182 21.4981 141.182 19.7853V12.9957H145.056V18.8984C145.056 20.815 145.29 22.2117 145.757 23.0884C146.225 23.9448 146.937 24.373 147.893 24.373C148.401 24.373 148.869 24.2404 149.296 23.9754C149.723 23.6899 150.078 23.2923 150.363 22.7826C150.668 22.2525 150.902 21.6 151.065 20.8252C151.248 20.0504 151.349 19.1635 151.37 18.1644V12.9957H155.243V24.8011C155.243 26.0857 155.132 27.2479 154.908 28.2877C154.705 29.3072 154.389 30.1941 153.962 30.9485C153.535 31.7233 152.997 32.3758 152.346 32.9059C151.715 33.436 150.973 33.8234 150.119 34.0681C149.265 34.3332 148.299 34.4657 147.221 34.4657Z" fill="#B2B2B2"/>
</g>
</svg>
