<svg width="32" height="32" viewBox="0 0 32 32" fill="none" xmlns="http://www.w3.org/2000/svg">
<g id="qr_code">
<mask id="mask0_16104_32363" style="mask-type:alpha" maskUnits="userSpaceOnUse" x="0" y="0" width="32" height="32">
<rect id="Bounding box" width="32" height="32" fill="#D9D9D9"/>
</mask>
<g mask="url(#mask0_16104_32363)">
<path id="qr_code_2" d="M4 13.3333V5.33333C4 4.95556 4.12778 4.63889 4.38333 4.38333C4.63889 4.12778 4.95556 4 5.33333 4H13.3333C13.7111 4 14.0278 4.12778 14.2833 4.38333C14.5389 4.63889 14.6667 4.95556 14.6667 5.33333V13.3333C14.6667 13.7111 14.5389 14.0278 14.2833 14.2833C14.0278 14.5389 13.7111 14.6667 13.3333 14.6667H5.33333C4.95556 14.6667 4.63889 14.5389 4.38333 14.2833C4.12778 14.0278 4 13.7111 4 13.3333ZM6.66667 12H12V6.66667H6.66667V12ZM4 26.6667V18.6667C4 18.2889 4.12778 17.9722 4.38333 17.7167C4.63889 17.4611 4.95556 17.3333 5.33333 17.3333H13.3333C13.7111 17.3333 14.0278 17.4611 14.2833 17.7167C14.5389 17.9722 14.6667 18.2889 14.6667 18.6667V26.6667C14.6667 27.0444 14.5389 27.3611 14.2833 27.6167C14.0278 27.8722 13.7111 28 13.3333 28H5.33333C4.95556 28 4.63889 27.8722 4.38333 27.6167C4.12778 27.3611 4 27.0444 4 26.6667ZM6.66667 25.3333H12V20H6.66667V25.3333ZM17.3333 13.3333V5.33333C17.3333 4.95556 17.4611 4.63889 17.7167 4.38333C17.9722 4.12778 18.2889 4 18.6667 4H26.6667C27.0444 4 27.3611 4.12778 27.6167 4.38333C27.8722 4.63889 28 4.95556 28 5.33333V13.3333C28 13.7111 27.8722 14.0278 27.6167 14.2833C27.3611 14.5389 27.0444 14.6667 26.6667 14.6667H18.6667C18.2889 14.6667 17.9722 14.5389 17.7167 14.2833C17.4611 14.0278 17.3333 13.7111 17.3333 13.3333ZM20 12H25.3333V6.66667H20V12ZM25.3333 28V25.3333H28V28H25.3333ZM17.3333 20V17.3333H20V20H17.3333ZM20 22.6667V20H22.6667V22.6667H20ZM17.3333 25.3333V22.6667H20V25.3333H17.3333ZM20 28V25.3333H22.6667V28H20ZM22.6667 25.3333V22.6667H25.3333V25.3333H22.6667ZM22.6667 20V17.3333H25.3333V20H22.6667ZM25.3333 22.6667V20H28V22.6667H25.3333Z" fill="white" fill-opacity="0.7"/>
</g>
</g>
</svg>
