<svg width="180" height="36" viewBox="0 0 180 36" fill="none" xmlns="http://www.w3.org/2000/svg">
<g id="logo">
<g id="Union">
<path d="M25.8272 25.6834L25.1551 25.6114V24.7665C25.1551 24.488 24.9295 24.2624 24.6511 24.2624C24.3726 24.2624 24.147 24.488 24.147 24.7665V25.8946L23.4701 26.8068C23.3069 27.0276 23.3501 27.3444 23.5757 27.5076C23.6669 27.5749 23.7725 27.6085 23.8733 27.6085C24.027 27.6085 24.1806 27.5364 24.2766 27.4068L24.8815 26.5907L25.7168 26.6771H25.7696C26.024 26.6771 26.2401 26.4851 26.2689 26.2259C26.2977 25.9522 26.096 25.7026 25.8224 25.6738L25.8272 25.6834Z" fill="#B2B2B2"/>
<path fill-rule="evenodd" clip-rule="evenodd" d="M19.9035 20.1243C20.3932 19.5626 21.0076 19.2746 21.5837 19.337H21.5885C22.0494 19.385 22.4382 19.6538 22.6783 20.0907C23.1727 20.9884 22.9135 22.4334 22.0878 23.3743C21.6365 23.888 21.0892 24.1712 20.5612 24.1712C20.5132 24.1712 20.4604 24.1664 20.4076 24.1616C19.9467 24.1136 19.5578 23.8448 19.3178 23.4079C18.8185 22.5102 19.0778 21.0652 19.9035 20.1243ZM20.5132 23.1679C20.7484 23.1919 21.0652 23.0191 21.3293 22.7166C21.867 22.1021 22.083 21.0988 21.7949 20.5755C21.7133 20.4267 21.6125 20.3499 21.4781 20.3355H21.4301C21.1997 20.3355 20.9116 20.5035 20.662 20.7868C20.1243 21.4013 19.9083 22.4046 20.1963 22.9279C20.2779 23.0767 20.3788 23.1535 20.5132 23.1679Z" fill="#B2B2B2"/>
<path fill-rule="evenodd" clip-rule="evenodd" d="M27.0519 16.1685C26.4758 16.1061 25.8661 16.3942 25.3716 16.9558C24.5459 17.8968 24.2867 19.3417 24.7812 20.2395C25.0212 20.6763 25.4101 20.9452 25.8709 20.9932C25.9237 20.998 25.9766 21.0028 26.0245 21.0028C26.5526 21.0028 27.0999 20.7195 27.5511 20.2059C28.3768 19.2649 28.6361 17.8199 28.1368 16.9222C27.8968 16.4854 27.5079 16.2165 27.0471 16.1685H27.0519ZM26.7974 19.5434C26.5334 19.8458 26.2166 20.0186 25.9813 19.9946C25.8469 19.9802 25.7461 19.9034 25.6645 19.7546C25.3764 19.2313 25.5925 18.228 26.1301 17.6135C26.3798 17.3303 26.6678 17.1623 26.8982 17.1623H26.9463C27.0807 17.1767 27.1815 17.2535 27.2631 17.4023C27.5511 17.9256 27.3351 18.9289 26.7974 19.5434Z" fill="#B2B2B2"/>
<path fill-rule="evenodd" clip-rule="evenodd" d="M32.0587 10.643C32.0059 9.98053 31.7754 9.34685 31.4058 8.80917C31.3674 8.73717 31.3242 8.66516 31.2714 8.60275L27.6949 4.4694C27.5461 4.29657 27.3156 4.21016 27.0852 4.24377C26.8596 4.27737 26.6628 4.42619 26.5715 4.63742L26.2547 5.36712L17.7336 0.456061C17.3399 0.230431 16.9079 0.0864115 16.471 0.0288038C16.183 -0.00960128 15.8901 -0.00960128 15.6021 0.0288038C15.1604 0.0864115 14.7332 0.22563 14.3395 0.456061L1.83865 7.66662L1.75223 7.72423L1.63222 7.79624C0.624083 8.37712 0 9.46206 0 10.6238V25.3666C0 26.5283 0.624083 27.6133 1.63222 28.1942L1.65142 28.2038L1.69463 28.2326L14.1955 35.4479C14.1955 35.4479 14.2291 35.4623 14.2435 35.4719L14.3971 35.5631C14.9012 35.856 15.4677 36 16.0293 36C16.591 36 17.1575 35.856 17.6616 35.5631L17.8152 35.4767L17.8728 35.4479L30.3688 28.2326C30.3688 28.2326 30.4025 28.2086 30.4217 28.199L30.4361 28.1894C31.4442 27.6085 32.0683 26.5235 32.0683 25.3618V10.859C32.0683 10.7822 32.0635 10.7102 32.0539 10.6334L32.0587 10.643ZM2.48193 8.85238L15.0308 1.60821C15.2612 1.4738 15.5157 1.39219 15.7749 1.35858C15.8613 1.34898 15.9477 1.34418 16.0341 1.34418C16.1157 1.34418 16.1974 1.34898 16.279 1.35858H16.2934C16.5526 1.39219 16.807 1.4738 17.0375 1.60821L25.717 6.62008L23.3407 12.112L20.3835 8.69876C20.2347 8.52594 20.0043 8.43953 19.7738 8.47313C19.5482 8.50673 19.3514 8.65555 19.2602 8.86678L15.7893 16.8839C15.5157 16.8502 15.2468 16.7686 15.002 16.6246L2.51073 9.40925C2.36191 9.32284 2.34271 9.17882 2.34271 9.12122C2.34271 9.06841 2.36191 8.94359 2.47713 8.85718L2.48193 8.85238ZM30.7337 25.309C30.7337 26.0147 30.3544 26.6724 29.7544 27.0468L17.1863 34.3054C17.0471 34.3726 16.9223 34.3246 16.8743 34.2958C16.8262 34.267 16.7062 34.1806 16.7062 34.0077V19.577C16.7062 18.8521 17.0903 18.18 17.7144 17.8104L24.056 14.1475H24.0608L30.2392 10.5806C30.2968 10.5518 30.3496 10.5374 30.3977 10.5374C30.4745 10.5374 30.5369 10.5662 30.5657 10.5854C30.6089 10.6094 30.6905 10.6766 30.7193 10.8014C30.7193 10.8254 30.7217 10.8494 30.7241 10.8734C30.7265 10.8974 30.7289 10.9215 30.7289 10.9455V25.3186L30.7337 25.309Z" fill="#B2B2B2"/>
<path d="M124.813 10.9781C124.263 10.9781 123.802 10.8067 123.43 10.464C123.073 10.1064 122.894 9.6668 122.894 9.14528C122.894 8.62376 123.073 8.19164 123.43 7.84892C123.802 7.49131 124.263 7.3125 124.813 7.3125C125.364 7.3125 125.817 7.49131 126.174 7.84892C126.546 8.19164 126.732 8.62376 126.732 9.14528C126.732 9.6668 126.546 10.1064 126.174 10.464C125.817 10.8067 125.364 10.9781 124.813 10.9781Z" fill="#B2B2B2"/>
<path d="M126.353 12.4532V24.8357H123.229V12.4532H126.353Z" fill="#B2B2B2"/>
<path fill-rule="evenodd" clip-rule="evenodd" d="M170.716 19.5832C170.775 19.2256 170.805 18.8232 170.805 18.3762C170.805 17.1693 170.545 16.1039 170.024 15.18C169.518 14.2413 168.797 13.5186 167.86 13.012C166.937 12.5054 165.889 12.2521 164.713 12.2521C163.494 12.2521 162.415 12.5128 161.478 13.0343C160.541 13.5559 159.812 14.3009 159.291 15.2694C158.771 16.238 158.51 17.363 158.51 18.6444C158.51 19.911 158.771 21.0285 159.291 21.9971C159.827 22.9656 160.563 23.7181 161.5 24.2545C162.452 24.776 163.523 25.0368 164.713 25.0368C166.186 25.0368 167.428 24.6568 168.44 23.8969C169.451 23.1221 170.136 22.1386 170.493 20.9466H167.123C166.632 21.9449 165.807 22.4441 164.647 22.4441C163.843 22.4441 163.166 22.1908 162.616 21.6842C162.066 21.1775 161.753 20.4772 161.679 19.5832H170.716ZM166.699 15.56C167.265 16.0368 167.555 16.6776 167.57 17.4822H161.701C161.82 16.6477 162.14 15.9996 162.661 15.5377C163.196 15.0608 163.851 14.8224 164.624 14.8224C165.442 14.8224 166.134 15.0683 166.699 15.56Z" fill="#B2B2B2"/>
<path d="M177.771 12.8332C177.132 13.2057 176.611 13.7198 176.209 14.3754V12.4532H173.086V24.8357H176.209V18.6668C176.209 17.5194 176.455 16.7148 176.946 16.2529C177.452 15.791 178.195 15.56 179.177 15.56H180.003V12.2744C179.17 12.2744 178.426 12.4607 177.771 12.8332Z" fill="#B2B2B2"/>
<path fill-rule="evenodd" clip-rule="evenodd" d="M149.033 12.2521C149.955 12.2521 150.766 12.4384 151.465 12.8109C152.165 13.1685 152.715 13.6379 153.117 14.219V12.4533H156.263V24.9251C156.263 26.0724 156.032 27.0931 155.571 27.9872C155.11 28.8961 154.418 29.6113 153.496 30.1329C152.574 30.6693 151.458 30.9375 150.149 30.9375C148.394 30.9375 146.951 30.5277 145.82 29.7082C144.704 28.8887 144.072 27.7711 143.923 26.3556H147.025C147.189 26.9218 147.538 27.3688 148.074 27.6966C148.624 28.0393 149.286 28.2107 150.06 28.2107C150.967 28.2107 151.703 27.935 152.269 27.3837C152.834 26.8473 153.117 26.0277 153.117 24.9251V23.0029C152.715 23.584 152.157 24.0683 151.443 24.4557C150.744 24.8431 149.941 25.0368 149.033 25.0368C147.992 25.0368 147.04 24.7686 146.177 24.2322C145.314 23.6958 144.63 22.9433 144.124 21.9748C143.633 20.9913 143.388 19.8663 143.388 18.5998C143.388 17.3481 143.633 16.238 144.124 15.2695C144.63 14.3009 145.307 13.5559 146.155 13.0344C147.018 12.5129 147.977 12.2521 149.033 12.2521ZM153.117 18.6445C153.117 17.8845 152.968 17.2364 152.67 16.6999C152.373 16.1486 151.971 15.7314 151.465 15.4483C150.96 15.1503 150.417 15.0013 149.836 15.0013C149.256 15.0013 148.721 15.1428 148.23 15.4259C147.739 15.709 147.337 16.1263 147.025 16.6776C146.728 17.214 146.579 17.8547 146.579 18.5998C146.579 19.3448 146.728 20.0004 147.025 20.5667C147.337 21.118 147.739 21.5426 148.23 21.8407C148.736 22.1387 149.271 22.2877 149.836 22.2877C150.417 22.2877 150.96 22.1461 151.465 21.863C151.971 21.565 152.373 21.1478 152.67 20.6114C152.968 20.06 153.117 19.4044 153.117 18.6445Z" fill="#B2B2B2"/>
<path d="M139.859 13.6826C138.952 12.7438 137.762 12.2744 136.289 12.2744C135.516 12.2744 134.802 12.4309 134.147 12.7438C133.507 13.0418 132.979 13.459 132.563 13.9955V12.4533H129.439V24.8357H132.563V17.9963C132.563 17.0128 132.808 16.2604 133.299 15.7388C133.805 15.2024 134.489 14.9342 135.352 14.9342C136.2 14.9342 136.869 15.2024 137.36 15.7388C137.851 16.2604 138.096 17.0128 138.096 17.9963V24.8357H141.22V17.5716C141.22 15.9028 140.767 14.6064 139.859 13.6826Z" fill="#B2B2B2"/>
<path fill-rule="evenodd" clip-rule="evenodd" d="M108.04 15.2694C107.549 16.238 107.304 17.3481 107.304 18.5997C107.304 19.8663 107.549 20.9913 108.04 21.9747C108.546 22.9432 109.23 23.6957 110.093 24.2322C110.956 24.7686 111.908 25.0368 112.949 25.0368C113.871 25.0368 114.682 24.8505 115.381 24.478C116.08 24.1055 116.623 23.6138 117.01 23.0029V24.8356H120.178V8.29591H117.01V14.1742C116.578 13.5931 115.998 13.1312 115.269 12.7885C114.541 12.4308 113.774 12.252 112.971 12.252C111.915 12.252 110.956 12.5128 110.093 13.0343C109.23 13.5558 108.546 14.3009 108.04 15.2694ZM116.586 16.6999C116.883 17.2363 117.032 17.8845 117.032 18.6444C117.032 19.4043 116.883 20.06 116.586 20.6113C116.288 21.1477 115.887 21.5649 115.381 21.863C114.875 22.1461 114.332 22.2876 113.752 22.2876C113.187 22.2876 112.651 22.1386 112.146 21.8406C111.655 21.5426 111.253 21.1179 110.941 20.5666C110.643 20.0004 110.494 19.3447 110.494 18.5997C110.494 17.8547 110.643 17.2139 110.941 16.6775C111.253 16.1262 111.655 15.709 112.146 15.4259C112.636 15.1428 113.172 15.0012 113.752 15.0012C114.332 15.0012 114.875 15.1502 115.381 15.4482C115.887 15.7313 116.288 16.1486 116.586 16.6999Z" fill="#B2B2B2"/>
<path fill-rule="evenodd" clip-rule="evenodd" d="M99.367 25.0369C98.177 25.0369 97.1059 24.7761 96.1539 24.2546C95.2019 23.7182 94.4507 22.9657 93.9003 21.9971C93.3648 21.0286 93.097 19.911 93.097 18.6445C93.097 17.3779 93.3722 16.2604 93.9226 15.2918C94.4879 14.3233 95.2539 13.5783 96.2209 13.0568C97.1878 12.5203 98.2662 12.2521 99.4563 12.2521C100.646 12.2521 101.725 12.5203 102.692 13.0568C103.659 13.5783 104.417 14.3233 104.968 15.2918C105.533 16.2604 105.816 17.3779 105.816 18.6445C105.816 19.911 105.525 21.0286 104.945 21.9971C104.38 22.9657 103.607 23.7182 102.625 24.2546C101.658 24.7761 100.572 25.0369 99.367 25.0369ZM99.367 22.31C99.9323 22.31 100.46 22.1759 100.951 21.9077C101.457 21.6246 101.859 21.2074 102.156 20.6561C102.454 20.1048 102.602 19.4342 102.602 18.6445C102.602 17.4673 102.29 16.5659 101.665 15.94C101.055 15.2993 100.304 14.9789 99.4116 14.9789C98.5191 14.9789 97.7679 15.2993 97.158 15.94C96.563 16.5659 96.2655 17.4673 96.2655 18.6445C96.2655 19.8216 96.5556 20.7306 97.1357 21.3713C97.7307 21.9971 98.4745 22.31 99.367 22.31Z" fill="#B2B2B2"/>
<path d="M89.5421 12.8332C88.9025 13.2057 88.3818 13.7198 87.9802 14.3754V12.4533H84.8563V24.8357H87.9802V18.6668C87.9802 17.5195 88.2256 16.7148 88.7165 16.2529C89.2223 15.791 89.9661 15.56 90.9479 15.56H91.7734V12.2744C90.9404 12.2744 90.1966 12.4607 89.5421 12.8332Z" fill="#B2B2B2"/>
<path d="M77.0655 12.2744C78.0026 12.2744 78.8357 12.483 79.5646 12.9002C80.2935 13.3025 80.8587 13.906 81.2604 14.7106C81.6769 15.5004 81.8852 16.454 81.8852 17.5716V24.8356H78.7613V17.9962C78.7613 17.0128 78.5158 16.2603 78.025 15.7388C77.5341 15.2024 76.8647 14.9341 76.0168 14.9341C75.154 14.9341 74.4697 15.2024 73.9639 15.7388C73.473 16.2603 73.2276 17.0128 73.2276 17.9962V24.8356H70.1037V8.29591H73.2276V13.9954C73.6292 13.459 74.1648 13.0418 74.8342 12.7438C75.5036 12.4308 76.2473 12.2744 77.0655 12.2744Z" fill="#B2B2B2"/>
<path d="M56.6591 15.2918C56.1385 16.2455 55.8782 17.363 55.8782 18.6445C55.8782 19.9259 56.1385 21.0509 56.6591 22.0195C57.1798 22.9731 57.9012 23.7181 58.8235 24.2546C59.7458 24.7761 60.802 25.0368 61.992 25.0368C63.5093 25.0368 64.7737 24.642 65.7853 23.8522C66.7968 23.0625 67.4736 21.9971 67.8158 20.6561H64.4465C64.0597 21.7885 63.2341 22.3547 61.9697 22.3547C61.0772 22.3547 60.3706 22.0344 59.8499 21.3936C59.3293 20.738 59.069 19.8216 59.069 18.6445C59.069 17.4524 59.3293 16.536 59.8499 15.8953C60.3706 15.2397 61.0772 14.9119 61.9697 14.9119C62.5945 14.9119 63.1151 15.0683 63.5316 15.3812C63.963 15.6792 64.268 16.0965 64.4465 16.6329H67.8158C67.4736 15.2471 66.7968 14.1743 65.7853 13.4143C64.7886 12.6395 63.5242 12.2521 61.992 12.2521C60.802 12.2521 59.7458 12.5203 58.8235 13.0567C57.9012 13.5783 57.1798 14.3233 56.6591 15.2918Z" fill="#B2B2B2"/>
<path d="M48.4617 24.9921C47.3758 24.9921 46.394 24.8059 45.5163 24.4334C44.6535 24.0609 43.9693 23.5244 43.4635 22.8241C42.9577 22.1238 42.6974 21.2968 42.6825 20.3432H46.0295C46.0741 20.9839 46.2973 21.4905 46.6989 21.863C47.1154 22.2355 47.6807 22.4218 48.3947 22.4218C49.1236 22.4218 49.6963 22.2504 50.1129 21.9077C50.5294 21.5501 50.7376 21.0882 50.7376 20.522C50.7376 20.06 50.5963 19.6801 50.3137 19.3821C50.031 19.084 49.674 18.8531 49.2426 18.6892C48.8261 18.5104 48.246 18.3167 47.5022 18.1081C46.4907 17.81 45.6651 17.5195 45.0254 17.2364C44.4007 16.9384 43.8577 16.4988 43.3966 15.9177C42.9503 15.3216 42.7272 14.5319 42.7272 13.5485C42.7272 12.6246 42.9577 11.82 43.4189 11.1346C43.88 10.4491 44.5271 9.9276 45.3601 9.56999C46.1932 9.19747 47.1452 9.01121 48.2162 9.01121C49.8228 9.01121 51.1244 9.40608 52.1211 10.1958C53.1326 10.9706 53.6904 12.0584 53.7945 13.4591H50.3583C50.3285 12.9226 50.098 12.4831 49.6666 12.1403C49.2501 11.7827 48.6922 11.6039 47.9931 11.6039C47.3832 11.6039 46.8923 11.7604 46.5204 12.0733C46.1634 12.3862 45.9849 12.8407 45.9849 13.4367C45.9849 13.8539 46.1188 14.2041 46.3865 14.4872C46.6692 14.7554 47.0113 14.9789 47.4129 15.1577C47.8295 15.3216 48.4096 15.5153 49.1534 15.7389C50.1649 16.0369 50.9905 16.3349 51.6302 16.6329C52.2698 16.9309 52.8202 17.3779 53.2813 17.9739C53.7425 18.57 53.9731 19.3523 53.9731 20.3208C53.9731 21.1552 53.7574 21.9301 53.326 22.6453C52.8946 23.3605 52.2624 23.9342 51.4293 24.3663C50.5963 24.7835 49.6071 24.9921 48.4617 24.9921Z" fill="#B2B2B2"/>
<path d="M96.4573 10.6875C95.9733 10.6875 95.5678 10.5297 95.2407 10.2142C94.9268 9.88491 94.7698 9.48018 94.7698 9C94.7698 8.51982 94.9268 8.12195 95.2407 7.8064C95.5678 7.47713 95.9733 7.3125 96.4573 7.3125C96.9413 7.3125 97.3403 7.47713 97.6542 7.8064C97.9813 8.12195 98.1448 8.51982 98.1448 9C98.1448 9.48018 97.9813 9.88491 97.6542 10.2142C97.3403 10.5297 96.9413 10.6875 96.4573 10.6875Z" fill="#B2B2B2"/>
<path d="M101.316 10.2142C101.643 10.5297 102.048 10.6875 102.532 10.6875C103.016 10.6875 103.415 10.5297 103.729 10.2142C104.056 9.88491 104.22 9.48018 104.22 9C104.22 8.51982 104.056 8.12195 103.729 7.8064C103.415 7.47713 103.016 7.3125 102.532 7.3125C102.048 7.3125 101.643 7.47713 101.316 7.8064C101.002 8.12195 100.845 8.51982 100.845 9C100.845 9.48018 101.002 9.88491 101.316 10.2142Z" fill="#B2B2B2"/>
</g>
</g>
</svg>
