<svg width="28" height="29" viewBox="0 0 28 29" fill="none" xmlns="http://www.w3.org/2000/svg">
<g id="swap thin">
<path id="Vector" d="M6.79584 19.1668L8.98335 21.3543C9.19723 21.5682 9.30418 21.8355 9.30418 22.1563C9.30418 22.4772 9.19723 22.7543 8.98335 22.9876C8.75001 23.2209 8.47293 23.3376 8.15209 23.3376C7.83126 23.3376 7.55418 23.2209 7.32085 22.9876L3.15001 18.8168C3.03334 18.7001 2.95071 18.5737 2.90209 18.4376C2.85348 18.3015 2.82918 18.1557 2.82918 18.0001C2.82918 17.8445 2.85348 17.6987 2.90209 17.5626C2.95071 17.4265 3.03334 17.3001 3.15001 17.1834L7.35001 12.9834C7.58334 12.7501 7.85557 12.6383 8.16668 12.648C8.47779 12.6577 8.75001 12.7793 8.98335 13.0126C9.19723 13.2459 9.30904 13.5182 9.31876 13.8293C9.32848 14.1404 9.21668 14.4126 8.98335 14.6459L6.79584 16.8334H14C14.3306 16.8334 14.6077 16.9452 14.8313 17.1688C15.0549 17.3925 15.1667 17.6695 15.1667 18.0001C15.1667 18.3307 15.0549 18.6077 14.8313 18.8313C14.6077 19.055 14.3306 19.1668 14 19.1668H6.79584ZM21.2042 12.1668H14C13.6695 12.1668 13.3924 12.055 13.1688 11.8313C12.9452 11.6077 12.8333 11.3307 12.8333 11.0001C12.8333 10.6695 12.9452 10.3925 13.1688 10.1688C13.3924 9.94524 13.6695 9.83343 14 9.83343H21.2042L19.0167 7.64593C18.8028 7.43204 18.6958 7.16468 18.6958 6.84385C18.6958 6.52301 18.8028 6.24593 19.0167 6.0126C19.25 5.77926 19.5271 5.6626 19.8479 5.6626C20.1688 5.6626 20.4458 5.77926 20.6792 6.0126L24.85 10.1834C24.9667 10.3001 25.0493 10.4265 25.0979 10.5626C25.1465 10.6987 25.1708 10.8445 25.1708 11.0001C25.1708 11.1557 25.1465 11.3015 25.0979 11.4376C25.0493 11.5737 24.9667 11.7001 24.85 11.8168L20.65 16.0168C20.4167 16.2501 20.1445 16.3619 19.8333 16.3522C19.5222 16.3425 19.25 16.2209 19.0167 15.9876C18.8028 15.7543 18.691 15.482 18.6813 15.1709C18.6715 14.8598 18.7833 14.5876 19.0167 14.3543L21.2042 12.1668Z" fill="white"/>
</g>
</svg>
