<svg width="200" height="30" viewBox="0 0 200 30" fill="none" xmlns="http://www.w3.org/2000/svg">
<g id="Group 48097547">
<g id="TMRWDAO">
<path id="Vector" d="M189.632 24.066C187.478 24.066 185.632 23.732 184.096 23.064C182.576 22.3792 181.407 21.4105 180.588 20.1579C179.787 18.9053 179.386 17.4022 179.386 15.6486C179.386 13.8782 179.787 12.3668 180.588 11.1142C181.407 9.86156 182.576 8.90124 184.096 8.23319C185.632 7.54843 187.478 7.20605 189.632 7.20605C191.803 7.20605 193.649 7.54843 195.169 8.23319C196.689 8.90124 197.849 9.86156 198.651 11.1142C199.469 12.3668 199.878 13.8782 199.878 15.6486C199.878 17.4022 199.469 18.9053 198.651 20.1579C197.849 21.4105 196.689 22.3792 195.169 23.064C193.649 23.732 191.803 24.066 189.632 24.066ZM189.632 21.1851C190.968 21.1851 192.137 20.9846 193.14 20.5838C194.158 20.183 194.952 19.5734 195.519 18.755C196.104 17.9367 196.396 16.9012 196.396 15.6486C196.396 14.396 196.104 13.3605 195.519 12.5421C194.952 11.7238 194.158 11.1142 193.14 10.7133C192.137 10.2958 190.968 10.087 189.632 10.087C188.313 10.087 187.135 10.2958 186.1 10.7133C185.064 11.1142 184.254 11.7238 183.67 12.5421C183.085 13.3605 182.793 14.396 182.793 15.6486C182.793 16.9012 183.085 17.9367 183.67 18.755C184.254 19.5734 185.064 20.183 186.1 20.5838C187.135 20.9846 188.313 21.1851 189.632 21.1851Z" fill="#B2B2B2"/>
<path id="Vector_2" d="M163.557 20.208V17.4273H174.279V20.208H163.557ZM159.524 23.7404L167.14 7.53174H170.747L178.438 23.7404H174.806L168.142 9.13507H169.745L163.131 23.7404H159.524Z" fill="#B2B2B2"/>
<path id="Vector_3" d="M149.085 7.53174C150.906 7.53174 152.426 7.74885 153.645 8.18309C154.864 8.61732 155.833 9.21022 156.551 9.96178C157.286 10.6966 157.803 11.5484 158.104 12.5171C158.421 13.4858 158.58 14.5045 158.58 15.5734C158.58 16.6423 158.405 17.6694 158.054 18.6548C157.72 19.6402 157.177 20.517 156.425 21.2853C155.691 22.0368 154.714 22.6381 153.494 23.089C152.292 23.5232 150.822 23.7404 149.085 23.7404H139.816V7.53174H149.085ZM143.148 20.8844H149.01C150.213 20.8844 151.206 20.7425 151.991 20.4586C152.793 20.1579 153.428 19.7571 153.895 19.2561C154.363 18.755 154.697 18.1872 154.897 17.5525C155.098 16.9179 155.198 16.2582 155.198 15.5734C155.198 14.8887 155.098 14.2373 154.897 13.6194C154.697 13.0014 154.363 12.4503 153.895 11.9659C153.428 11.4816 152.793 11.0975 151.991 10.8135C151.206 10.5296 150.213 10.3877 149.01 10.3877H143.148V20.8844Z" fill="#B2B2B2"/>
<path id="Vector_4" d="M112.665 23.7404L105.825 7.53174H109.508L115.295 21.8865L114.218 21.9116L119.729 7.53174H123.562L129.074 21.9116L127.996 21.8865L133.783 7.53174H137.391L130.627 23.7404H126.543L121.132 9.68621H122.184L116.748 23.7404H112.665Z" fill="#B2B2B2"/>
<path id="Vector_5" d="M86.9476 23.7404V7.53174H97.9454C99.198 7.53174 100.284 7.7071 101.202 8.05783C102.137 8.39186 102.864 8.9263 103.382 9.66115C103.899 10.3793 104.158 11.3062 104.158 12.4419C104.158 13.2102 104.025 13.8615 103.757 14.396C103.49 14.9304 103.114 15.3647 102.63 15.6987C102.162 16.0327 101.62 16.2916 101.002 16.4753C100.384 16.6423 99.7241 16.7509 99.0226 16.801L98.6719 16.6006C99.841 16.6173 100.801 16.7175 101.553 16.9012C102.304 17.0682 102.864 17.3855 103.231 17.8532C103.615 18.3041 103.808 18.9805 103.808 19.8824V23.7404H100.476V20.1078C100.476 19.4899 100.367 19.0139 100.15 18.6799C99.9328 18.3291 99.5404 18.087 98.9725 17.9534C98.4214 17.8197 97.6197 17.7529 96.5675 17.7529H90.2795V23.7404H86.9476ZM90.2795 15.1475H97.9454C98.8807 15.1475 99.5905 14.9221 100.075 14.4711C100.576 14.0202 100.826 13.4106 100.826 12.6423C100.826 11.9075 100.576 11.348 100.075 10.9639C99.5905 10.5797 98.8807 10.3877 97.9454 10.3877H90.2795V15.1475Z" fill="#B2B2B2"/>
<path id="Vector_6" d="M72.0258 22.0869H70.4475L79.7668 7.53174H83.0987V23.7404H79.7668V11.9659L80.5685 12.1914L73.128 23.7404H69.3953L61.9549 12.2415L62.7565 12.016V23.7404H59.4246V7.53174H62.7565L72.0258 22.0869Z" fill="#B2B2B2"/>
<path id="Vector_7" d="M40.4065 7.53174H57.4919V10.3125H40.4065V7.53174ZM47.2958 9.96178H50.6277V23.7404H47.2958V9.96178Z" fill="#B2B2B2"/>
</g>
<path id="Union (Stroke)" fill-rule="evenodd" clip-rule="evenodd" d="M0.121521 0.125H20.0057C25.7855 0.125 30.4709 4.81044 30.4709 10.5902V29.7894H18.4457V19.7395L8.11882 29.8751H0.207263V22.0409L10.234 12.1502H0.121521V0.125ZM1.87152 1.875V10.4002H14.5L1.95726 22.7727V28.1251H7.40351L20.1957 15.5698V28.0394H28.7209V10.5902C28.7209 5.77694 24.819 1.875 20.0057 1.875H1.87152Z" fill="#B2B2B2"/>
</g>
</svg>
